<svg width="255" height="266" viewBox="0 0 255 266" fill="none" xmlns="http://www.w3.org/2000/svg">
<path d="M101.285 77.6263C103.878 76.0734 107.19 77.8471 107.335 80.8662L111.505 167.702C111.654 170.806 108.361 172.887 105.621 171.42L26.8668 129.248C24.1271 127.781 24.0338 123.887 26.7 122.29L101.285 77.6263Z" fill="#70FEE4"/>
<path d="M135.262 125.945C132.512 127.199 129.417 125.067 129.61 122.051L135.14 35.2914C135.338 32.1899 138.842 30.4887 141.401 32.2518L214.967 82.934C217.526 84.6971 217.185 88.5776 214.358 89.8673L135.262 125.945Z" fill="#F3E458"/>
<path d="M135.188 219.548C132.213 220.082 129.743 217.251 130.676 214.376L157.516 131.687C158.475 128.731 162.292 127.951 164.335 130.293L223.061 197.612C225.104 199.954 223.813 203.629 220.754 204.178L135.188 219.548Z" fill="#E07A5F"/>
</svg>
