<?xml version="1.0" encoding="UTF-8"?><svg xmlns="http://www.w3.org/2000/svg" xmlns:xlink="http://www.w3.org/1999/xlink" height="460.6" preserveAspectRatio="xMidYMid meet" version="1.0" viewBox="0.0 0.0 510.9 460.6" width="510.9" zoomAndPan="magnify"><g><g id="change1_3"><path d="M244.3660889,0H58.7999191C41.36586,0,27.2327614,14.1330976,27.2327614,31.5671577v321.6841736 c0,17.4340515,14.1330986,31.5671387,31.5671577,31.5671387h185.5661621 c17.4340515,0,31.5671692-14.1330872,31.5671692-31.5671387V31.5671577C275.9332581,14.1330976,261.8001404,0,244.3660889,0z" fill="#FFAC67"/></g><g id="change2_10"><path d="M155.1166992,293.5287476c-11.1020508-11.6356201-34.657959-20.7398682-49.3867188-9.4752197 c1.5180664-17.1518555-8.1845703-43.0535889-28.581543-44.4317627 c-33.7023926-2.2772217-28.0461426,28.5206299-28.4353027,49.5301514 c-7.8254395-9.9818115-15.1005859-12.5930176-21.4802246-10.6206055v74.7199707 c0,17.434082,14.1328125,31.5671387,31.5668945,31.5671387h82.6230469 C170.5947266,364.241394,186.0778809,325.9776001,155.1166992,293.5287476z" fill="#FF8762"/></g><g id="change2_11"><circle cx="172.409" cy="24.476" fill="#FF8762" r="10.794"/></g><g id="change2_13"><path d="M115.7373276 99.3175812L112.8119965 135.1463776 148.108963 138.4198608 146.0474243 104.4702301z" fill="#FF8762"/></g><g id="change3_32"><path d="M129.6953583,122.8558807c0,0,2.654007,9.7801514,18.1946259,11.9564209l-0.4187622-6.8967896 L129.6953583,122.8558807z" fill="#2E1042"/></g><g id="change4_7"><path d="M440.2653503,74.2956467H254.6991882c-17.4340668,0-31.5671539,14.1331024-31.5671539,31.5671616 v321.6841431c0,17.434082,14.1330872,31.5671692,31.5671539,31.5671692h185.5661621 c17.434082,0,31.5671692-14.1330872,31.5671692-31.5671692V105.8628082 C471.8325195,88.4287491,457.6994324,74.2956467,440.2653503,74.2956467z" fill="#FC3D5F"/></g><g id="change5_6"><path d="M257.0849609,299.1261292c-0.2717285,0.218811-50.4499054-73.4382935-49.5268097-107.0426331 c0.1914673-6.9706116,24.0896454-14.0608368,24.0896454-14.0608368l54.7846069,104.0764008L257.0849609,299.1261292z" fill="#FFCFB9"/></g><g id="change3_15"><path d="M353.8747864,211.75737c0,0-26.1847839,7.5002136-41.2927246,27.7259674 c-7.6668701,10.2640228-19.2127991,32.5487061-25.7488708,33.0648499 c-9.056488,0.7151794-17.6277161-60.4685211-38.957016-71.3822327 c-3.9958191-2.0445709-6.7915497,22.9057465-11.6635895,40.5706787 c-4.4056244,15.9737854-9.5427246,28.9919128-7.4856873,38.388855 c4.6580505,21.2786255,17.4225922,44.2605286,33.8145752,49.1921082 c8.9849243,2.7031555,45.133667,13.5327759,57.8938599-14.0727234 c4.9155884-10.6344604,23.0342102-43.550354,27.0848389-54.5434265 C351.9902039,248.5701141,353.8747864,211.75737,353.8747864,211.75737z" fill="#2E1042"/></g><g id="change3_5"><path d="M438.2418518,345.7042542c5.5266724-3.6663208,21.1047668,3.6198425,24.9996338,8.876709 c7.5923767,10.2472839,6.2952271,38.6533508-10.8104248,42.175354 C430.4563599,401.2808838,422.5172119,356.1357727,438.2418518,345.7042542z" fill="#2E1042"/></g><g id="change5_31"><path d="M211.4547577,283.6387634c-6.7739868-29.004303-9.0636139-69.9115601-13.3622437-93.0048065 c-7.4724731-40.1427765-39.0492249-48.3135986-39.0492249-48.3135986l3.6334076,194.325943h54.4313812 C217.3311768,309.9414673,211.4547577,283.6387634,211.4547577,283.6387634z" fill="#FFCFB9"/></g><g id="change2_27"><path d="M162.6766968,336.6463013l0.7096558,37.9524231h46.930542 c4.9553833-10.4184265,6.6766205-24.2383423,6.7911835-37.9524231H162.6766968z" fill="#FF8762"/></g><g id="change3_1"><path d="M68.1743546 282.3488159L61.4355545 384.8184814 211.4547424 384.8184814 198.2332153 274.2026062z" fill="#2E1042"/></g><g opacity=".3"><g id="change4_9"><path d="M199.4892426,369.5508118c-5.8331757-5.408783-13.8607635-7.6504822-21.6136322-9.4315796 c-6.0794983-1.396698-12.2370148-2.6256104-18.4730072-2.77771c-19.3580627-0.4720764-38.4912872,9.4069824-57.4936218,5.6831055 c-5.0208435-0.9838257-9.8586273-2.9039917-14.9501114-3.4079285c-5.0912476-0.5038147-10.7930832,0.748291-13.8413696,4.8571777 c-2.5517426,3.4395752-2.6992493,8.0400391-2.7451859,12.3225403c-0.0286255,2.6739807-0.057251,5.348053-0.0861053,8.0220337 h137.8151093C206.511734,379.0059204,203.8718109,373.6145935,199.4892426,369.5508118z" fill="#FC3D5F"/></g></g><g id="change3_6"><path d="M195.3876953,384.8184204c-0.4248047-6.3305664-0.791748-12.6774902-1.1074219-19.0305176 c-0.2561035-0.1453857-0.5107422-0.2926025-0.7709961-0.4311523c0.3203125,6.496582,0.692627,12.987793,1.1264648,19.4616699 H195.3876953z" fill="#2E1042"/></g><g id="change3_7"><path d="M175.4082031,384.8184204c-0.4465332-8.6472168-1.3608398-17.2736816-2.7336426-25.8239746 c-0.260498-0.0522461-0.5214844-0.1027832-0.7824707-0.1534424c1.3908691,8.5999756,2.3146973,17.2781982,2.7651367,25.977417 H175.4082031z" fill="#2E1042"/></g><g id="change3_8"><path d="M151.128418,384.8184204c0.0073242-8.9981689-0.1411133-18.0427246-0.4477539-27.0656738 c-0.2492676,0.0272217-0.4985352,0.0556641-0.7475586,0.0849609c0.3046875,8.994751,0.4526367,18.0108643,0.4453125,26.9807129 H151.128418z" fill="#2E1042"/></g><g id="change3_9"><path d="M127.4521484,384.8184204c-0.0778809-7.5690918-0.2329102-15.1552734-0.4440918-22.7258301 c-0.2490234,0.046875-0.4978027,0.0910645-0.746582,0.1368408c0.2092285,7.5251465,0.3632813,15.0654297,0.4406738,22.5889893 H127.4521484z" fill="#2E1042"/></g><g id="change3_10"><path d="M84.822998,384.8184204l-0.911377-25.2841797c-0.25,0.0111084-0.4997559,0.0256348-0.7492676,0.0458984 l0.909668,25.2382813H84.822998z" fill="#2E1042"/></g><g id="change3_11"><path d="M109.9667969,375.0154419c-0.0358887,3.2368164-0.0664063,6.5178223,0.0090332,9.8029785h0.7504883 c-0.0756836-3.2807617-0.045166-6.5598145-0.0095215-9.7946777c0.0405273-3.6877441,0.0786133-7.4260254-0.0458984-11.161499 c-0.2507324-0.0014648-0.5009766-0.0098877-0.7514648-0.0147705 C110.0454102,367.5828247,110.0073242,371.324646,109.9667969,375.0154419z" fill="#2E1042"/></g><g id="change3_24"><path d="M161.6153107 79.0413437L160.2566223 99.3175812 153.2820892 78.4072952z" fill="#2E1042"/></g><g id="change2_17"><path d="M155.6938934,72.0732346c0,0,4.9799957,25.0646362,6.5001221,34.0253448 c1.5247192,8.9878235-1.0470581,20.3474426-14.6854706,21.8275757 c-10.3520508,1.1234818-24.6362686-6.7408676-34.1858368-17.1731644l-5.6173935-38.6797562H155.6938934z" fill="#FF8762"/></g><g id="change3_25"><path d="M149.0595703,86.249321c-4.3076172,0-9.1210938-3.5419922-11.7705078-6.5742188 c-0.1367188-0.1557617-0.1201172-0.3925781,0.0351563-0.5288086c0.15625-0.1367188,0.3925781-0.1206055,0.5292969,0.0356445 c3.3808594,3.8681641,10.4169922,8.6616211,14.90625,5.050293c0.1591797-0.1303711,0.3964844-0.1054688,0.5273438,0.0571289 c0.1298828,0.1611328,0.1044922,0.3974609-0.0566406,0.5268555C151.9736328,85.827446,150.546875,86.249321,149.0595703,86.249321 z" fill="#2E1042"/></g><g id="change3_39"><path d="M158.2021484,83.2156296c-3.6611328,0-7.4570313-1.0410156-8.4492188-3.0073242 c-0.0927734-0.1850586-0.0185547-0.4106445,0.1660156-0.5039063c0.1865234-0.09375,0.4091797-0.019043,0.5039063,0.1660156 c1.0117188,2.0053711,6.0859375,2.9545898,9.9423828,2.4628906c2.5615234-0.3261719,4.1787109-1.1914063,4.4355469-2.3735352 c0.0439453-0.2026367,0.2402344-0.3305664,0.4462891-0.2866211c0.2021484,0.0439453,0.3300781,0.2436523,0.2861328,0.4458008 c-0.3330078,1.5336914-2.1347656,2.5839844-5.0732422,2.9580078 C159.7314453,83.1697311,158.9697266,83.2156296,158.2021484,83.2156296z" fill="#2E1042"/></g><g id="change3_41"><path d="M114.0611572,119.8469315l5.6040039-9.0939407l7.895668-12.3731461 c4.2541733-6.693306-2.7928314-18.4327164-2.7928314-18.4327164s4.4202194,6.204628,12.8319168,6.0687561 c5.9956512-0.0968399,1.802536-6.7390366,1.802536-6.7390366s4.1877441,6.3314362,12.6802673,6.1049881 c3.0234528-0.0806198,1.7307587-4.0941467,1.7307587-4.0941467s5.5002594,1.529747,7.3826904,1.4895172 c7.3936768-0.1580124,9.1529083-10.6858902-3.3313751-15.5638733 c-20.2648773-7.918087-52.8104706,13.1944351-51.2354813,22.0711441 C109.1168747,103.3044434,114.0611572,119.8469315,114.0611572,119.8469315z" fill="#2E1042"/></g><g id="change2_2"><path d="M318.7750244,342.5481567c-20.8366089,19.19104-10.4020386,110.3828125-9.6679688,116.565979h131.1582947 c5.277771,0,10.2487488-1.3020935,14.6209412-3.5919495c-2.3666077-18.2864685-13.2210999-95.0969543-30.8028259-114.116272 C404.9449158,320.7021484,339.5135193,323.447113,318.7750244,342.5481567z" fill="#FF8762"/></g><g opacity=".5"><g id="change4_29"><path d="M329.4525757,413.7967529c20.3260803,10.500946,44.2023621,13.6074219,66.7359619,9.6513672 c17.916687-3.1454773,34.940155-10.6643066,49.7356262-21.2789917 c-5.2654724-24.96698-12.6288452-50.7982483-21.8405457-60.7632751 c-19.138855-20.7037964-84.570282-17.9586792-105.3087158,1.1422424 c-8.9021606,8.1993103-12.0934753,29.5436401-12.7744751,51.785553 C311.7908936,402.6582642,320.3521423,409.0953064,329.4525757,413.7967529z" fill="#FC3D5F"/></g></g><g opacity=".4"><g id="change4_15"><path d="M362.51828,433.3841858c1.5918884,5.7012634,1.6749573,12.9961548-2.1651306,17.500824 c-1.1766052,1.3804626-2.7389526,2.3765259-4.3435669,3.2223511c-12.25177,6.457489-27.2205811,4.858551-40.4728394,0.8358765 c-2.4480896-0.7430725-4.9968262-1.6817017-7.1974487-3.0093689c0.3711853,3.7750854,0.6648254,6.313446,0.7677612,7.1802673 h64.7707825C372.5387268,457.2036743,366.1427612,439.7985229,362.51828,433.3841858z" fill="#FC3D5F"/></g></g><g opacity=".4"><g id="change4_10"><path d="M454.8862915,455.5221863c-0.5769043-4.4571228-1.6593018-12.3967285-3.2193604-22.1234436 c-1.3587341,8.801239-5.3768005,17.1072388-12.2949524,22.5873413c-1.4822388,1.1739502-3.0679016,2.1958923-4.7105713,3.1280518 h5.6039429C445.5431213,459.1141357,450.5140991,457.8120422,454.8862915,455.5221863z" fill="#FC3D5F"/></g></g><g id="change5_30"><path d="M389.0436401 183.0010529L389.8621216 208.4416656 353.0286255 212.0189972 355.204071 185.2672119z" fill="#FFCFB9"/></g><g id="change3_45"><path d="M375.7880249,194.1664581l-21.4781189,2.0974884l-0.8127441,9.994873 C353.4982605,206.2588196,365.1907959,207.0732269,375.7880249,194.1664581z" fill="#2E1042"/></g><g id="change2_23"><path d="M344.5313721,135.9787445c0,0-6.6643677,6.1957703-6.5415344,15.5429077 c0.0531006,4.0406036,3.5932312,15.5429077,3.5932312,15.5429077l9.8510437-26.885025L344.5313721,135.9787445z" fill="#FF8762"/></g><g opacity=".5"><g id="change4_30"><path d="M347.1560059,151.8549957l4.2781677-11.6754913l-6.9027405-4.2008514 c0,0-6.3733215,5.949234-6.5238647,14.9724884C340.9165649,152.0063629,344.0986023,152.3251953,347.1560059,151.8549957z" fill="#FC3D5F"/></g></g><g id="change5_9"><path d="M345.1296997,142.9129333c0,0-5.1613464,25.9772644-6.7368164,35.2642365 c-1.5802307,9.315094,1.0851746,21.0883179,15.2201843,22.622345 c10.7289734,1.1643982,25.5332947-6.9863129,35.4305725-17.7984619l5.8219299-40.0881195H345.1296997z" fill="#FFCFB9"/></g><g id="change2_18"><path d="M397.6856079,172.5176392c6.2480164-4.4022522,11.842865-30.0713806-1.9250488-35.0532074 c0,0,8.5298767-14.9454346-21.3165588-12.5894852l1.7736816-3.5473328l-14.0074463-0.666275l2.4407959-2.9778214 c0,0-25.2485657-2.0055923-30.7102661,13.8480377c-2.275177,6.6042328-0.4326477,18.0703888,22.9616394,18.0703888 c11.9563599,0,20.5273438-4.9415741,20.5273438-4.9415741s-3.4745789,9.4278717-3.8609009,12.7313232 c-0.477417,4.0822296,1.9021301,17.4816437,1.9021301,17.4816437l4.5071106,2.0832977v-6.7638245 C379.9780884,170.1928101,394.3007202,174.9025726,397.6856079,172.5176392z" fill="#FF8762"/></g><g opacity=".5"><g id="change4_11"><path d="M402.7462463,159.5142975c-1.3257751,2.3275452-3.2963257,4.3801727-5.8030396,5.3241119 c-4.4729004,1.6841583-9.4239197-0.4369202-13.5687256-2.8165588c-1.387146-0.796402-2.7857361-1.6533356-3.7842407-2.9031677 c-1.5480347-1.9373932-1.9282532-4.55513-1.9462585-7.0348511c-0.0182495-2.480011,0.2656555-4.9860687-0.1873474-7.4241943 c-0.0152893,0.0144501-0.0283813,0.0308075-0.0430908,0.0452728c-0.1718445,0.4678802-3.4684143,9.4694519-3.8447876,12.6866608 c-0.4772949,4.0823517,1.9023438,17.4816742,1.9023438,17.4816742l4.5069885,2.0834503v-6.7639008 c0,0,14.3225403,4.7097778,17.707489,2.3248138c2.9764099-2.0970764,5.7992249-9.0207977,6.4568176-16.2345734 C403.7913818,157.4052124,403.3285217,158.491806,402.7462463,159.5142975z" fill="#FC3D5F"/></g></g><g id="change5_16"><path d="M379.9780884,170.1928101c0,0,3.1573792-7.894516,11.787262-5.9325714 c2.7903748,0.6343689,6.5484619,4.476059,5.8448486,9.8415833c-0.4015198,3.0618896-2.7446289,7.134964-8.5665588,8.899231 L379.9780884,170.1928101z" fill="#FFCFB9"/></g><g id="change3_58"><path d="M391.1230469,174.6433716h-4.5742188c-0.1337891,0-0.2578125-0.0712891-0.3242188-0.1870117 c-0.0673828-0.1157227-0.0673828-0.2583008-0.0009766-0.3745117l3.5761719-6.237793 c0.1035156-0.1801758,0.3330078-0.2407227,0.5117188-0.1386719c0.1796875,0.1030273,0.2421875,0.3320313,0.1386719,0.5117188 l-3.2539063,5.6762695h3.9267578c0.2070313,0,0.375,0.1679688,0.375,0.375S391.3300781,174.6433716,391.1230469,174.6433716z" fill="#2E1042"/></g><g id="change3_51"><path d="M144.5732422,112.0491257c-2.0478516,0-5.9023438-0.6987305-7.9365234-5.5605469 c-0.0800781-0.190918,0.0097656-0.4106445,0.2011719-0.4907227c0.1875-0.0786133,0.4111328,0.0097656,0.4902344,0.2016602 c2.6025391,6.2182617,8.3837891,5.0180664,8.4414063,5.003418c0.2089844-0.0419922,0.4023438,0.0834961,0.4472656,0.2851563 c0.0449219,0.2021484-0.0830078,0.4023438-0.2851563,0.4472656 C145.9130859,111.9392624,145.3847656,112.0491257,144.5732422,112.0491257z" fill="#2E1042"/></g><g id="change3_16"><path d="M150.625,106.7190475c-0.1533203,0-0.296875-0.0942383-0.3525391-0.246582 c-0.0703125-0.1948242,0.0292969-0.4101563,0.2246094-0.480957l2.3876953-0.8686523 c-3.8007813-4.2719727-5.0498047-12.4204102-5.1025391-12.7763672c-0.0302734-0.2050781,0.1113281-0.3955078,0.3154297-0.4262695 c0.2197266-0.0297852,0.3955078,0.1118164,0.4267578,0.315918c0.0126953,0.0878906,1.3535156,8.8251953,5.2890625,12.7797852 c0.0908203,0.0908203,0.1279297,0.2211914,0.1005859,0.3461914c-0.0283203,0.125-0.1181641,0.2270508-0.2382813,0.2709961 l-2.9228516,1.0634766C150.7109375,106.7117233,150.6679688,106.7190475,150.625,106.7190475z" fill="#2E1042"/></g><g id="change3_3"><path d="M134.7587891,91.1003952c-0.078125,0-0.1572266-0.0244141-0.2246094-0.074707 c-0.1660156-0.1240234-0.2001953-0.3588867-0.0761719-0.5249023c3.1269531-4.1835938,7.1396484-1.3217773,7.1796875-1.2919922 c0.1669922,0.1220703,0.203125,0.3564453,0.0810547,0.5234375c-0.1210938,0.1669922-0.3554688,0.2055664-0.5234375,0.0825195 c-0.1396484-0.1015625-3.4589844-2.4472656-6.1357422,1.1352539 C134.9853516,91.0486374,134.8730469,91.1003952,134.7587891,91.1003952z" fill="#2E1042"/></g><g id="change3_56"><path d="M150.8505859,90.2117233c-0.0791016,0-0.1591797-0.0249023-0.2265625-0.0761719 c-0.1640625-0.1254883-0.1972656-0.3588867-0.0722656-0.5239258c0.0195313-0.0258789,2.0195313-2.6015625,5.3496094-0.6748047 c0.1796875,0.1040039,0.2412109,0.3330078,0.1367188,0.5126953s-0.3369141,0.2392578-0.5117188,0.1367188 c-2.7470703-1.5893555-4.3125,0.394043-4.3779297,0.4785156 C151.0751953,90.1614304,150.9628906,90.2117233,150.8505859,90.2117233z" fill="#2E1042"/></g><g id="change4_16"><path d="M106.451088,88.2691574c0,0,29.185173-23.4636765,51.4137039-21.0558243 c0,0-4.5126343-10.2216797-10.7420349-14.8926239c-9.2148285-6.9094734-36.820137-0.6830444-43.7493896,15.8344574 C101.2748947,73.1573792,106.451088,88.2691574,106.451088,88.2691574z" fill="#FC3D5F"/></g><g id="change2_19"><path d="M128.4122467,98.3947296c0,0-3.0464554-7.6171722-11.3731613-5.7241669 c-2.6923599,0.6120911-6.3184128,4.3188171-5.6395187,9.495842c0.3874207,2.9543152,2.648201,6.8843002,8.2655945,8.586586 L128.4122467,98.3947296z" fill="#FF8762"/></g><g id="change3_17"><path d="M122.0722656,102.7019577h-4.4130859c-0.2070313,0-0.375-0.1679688-0.375-0.375 s0.1679688-0.375,0.375-0.375h3.765625l-3.1279297-5.4570313c-0.1035156-0.1796875-0.0410156-0.4086914,0.1386719-0.5117188 c0.1787109-0.1030273,0.4082031-0.0419922,0.5117188,0.1386719l3.4501953,6.0185547 c0.0664063,0.1162109,0.0664063,0.2587891-0.0009766,0.3745117 C122.3300781,102.6306686,122.2060547,102.7019577,122.0722656,102.7019577z" fill="#2E1042"/></g><g id="change5_2"><path d="M112.8119965,135.1463776c-23.4329987,2.227478-41.7425919,17.7566223-39.9498062,52.2640991 c6.1593399,118.5546112-22.1324043,99.0554962-14.6874619,156.8445282c0,0,27.807579,9.6664734,55.5245819,9.420166 c27.0071106-0.2400208,33.9406891-5.4347229,68.2055664-6.2499084c21.4532013-0.5104065,29.5498657-2.041687,29.5498657-2.041687 c-0.043457-3.0842896-0.1060028-5.9880371-0.1871185-8.73172c-0.5339508-18.0604248-1.8726501-29.1864929-3.8718872-39.2335205 c-4.4264526-22.244873-12.0909271-39.2002258-21.428009-114.4172821 c-1.4818268-11.9371033-10.3127594-34.493988-31.1199341-42.5908508 C146.5047455,137.1635895,123.4968185,134.1307068,112.8119965,135.1463776z" fill="#FFCFB9"/></g><g opacity=".3"><g id="change4_5"><path d="M182.2648621,198.9405975c-3.2269592,0.668869-6.5474091,0.8837738-9.7212677,1.7713776 c-3.2458954,0.9077911-6.2609406,2.4979553-9.4662018,3.5411377c-3.2050323,1.0432892-6.7990265,1.5048676-9.8840179,0.1470337 c-1.9049225-0.8386536-3.4559631-2.2985077-4.9663696-3.7308807 c-6.2932434-5.9689178-12.5869598-11.9377289-18.8802185-17.9065247 c2.3760834,13.5729065,10.9980774,24.600174,18.0861206,36.4167023c0.8425751,1.4045563,1.6844635,2.8529816,2.9342499,3.9114075 c1.6452179,1.3936005,3.8419342,1.9695587,5.9906158,2.1461487c5.5684052,0.4575348,11.0271606-1.4824829,16.2465363-3.4755707 c3.9499512-1.5084534,7.8943787-3.0706787,11.5987244-5.1090393c5.6057892-3.0846405,10.7476044-7.2788239,16.2476807-10.4964447 c-0.5713501-4.4026489-1.1602325-8.5248108-1.7881165-12.2707062c-2.9520264,0.9653931-5.9038239,1.9307709-8.8558502,2.8961639 C187.31987,197.5946655,184.826767,198.4095306,182.2648621,198.9405975z" fill="#FC3D5F"/></g></g><g opacity=".3"><g id="change4_18"><path d="M180.8516388,244.9136353c-8.6360779,2.6426849-17.8792725,2.3742218-26.8743134,1.5653381 c-12.9480133-1.1642609-26.1958847-3.5467834-37.1505585-10.5469971 c-5.1413422-3.2854767-9.6194687-7.491333-14.0643616-11.6712189 c-8.3002014-7.8054962-16.6004105-15.6107788-24.9006119-23.4162903c-0.152359-0.1431122-0.312561-0.2839355-0.4796906-0.4128571 c7.002861,15.5553741,12.728241,31.685791,17.075943,48.1815186c2.1828537,8.2826538,4.0425339,16.7162781,7.5859756,24.5145264 c3.5434494,7.7982178,9.0021973,15.052948,16.6318054,18.9463501c10.3018494,5.256897,22.6161804,3.632782,34.0482483,1.8797607 c4.4321899-0.6795959,8.8784637-1.3622131,13.1883087-2.5990601c4.0226746-1.1542358,7.8911438-2.7812195,11.7485352-4.4040222 c10.5682526-4.4464111,21.1364899-8.8926697,31.7044983-13.3390808 c-2.2493439-12.00177-3.9462738-25.2651062-5.4532166-38.1251526c-4.1191711,1.585434-8.2032471,3.2625122-12.2386169,5.0503845 C188.1135101,242.1140747,184.5749207,243.7741852,180.8516388,244.9136353z" fill="#FC3D5F"/></g></g><g id="change3_59"><path d="M120.5927734,347.8274536c-38.5751953,0-62.8857422-8.6928711-63.1787109-8.800293 c-0.1943359-0.0708008-0.2939453-0.2861328-0.2236328-0.480957c0.0712891-0.1943359,0.2832031-0.2949219,0.4814453-0.2231445 c0.3554688,0.1298828,36.1611328,12.9272461,89.9287109,7.3476563c15.7890625-1.637207,63.3320313-7.3110352,63.8095703-7.3681641 c0.2128906-0.0214844,0.3925781,0.1225586,0.4169922,0.328125s-0.1220703,0.3920898-0.3271484,0.4169922 c-0.4785156,0.0571289-48.0273438,5.730957-63.8212891,7.3691406 C138.0429688,347.4163208,128.9794922,347.8274536,120.5927734,347.8274536z" fill="#2E1042"/></g><g id="change3_33"><path d="M161.6152344,344.8049927c-0.1982422,0-0.3642578-0.1552734-0.3740234-0.3554688 c-0.0478516-0.90625-4.7324219-90.9682617-4.1679688-121.2143555 c0.9384766-50.2260742-12.5302734-78.3266602-12.6669922-78.6044922c-0.0908203-0.1860352-0.0136719-0.4106445,0.171875-0.5019531 c0.1835938-0.090332,0.4101563-0.0141602,0.5019531,0.171875c0.1367188,0.2792969,13.6845703,28.5244141,12.7431641,78.9482422 c-0.5634766,30.2202148,4.1191406,120.2558594,4.1660156,121.1616211c0.0117188,0.206543-0.1474609,0.3833008-0.3544922,0.394043 C161.6279297,344.8049927,161.6210938,344.8049927,161.6152344,344.8049927z" fill="#2E1042"/></g><g id="change3_2"><path d="M208.9193573,198.1509399c14.2461853-1.0272522,28.8795319,40.3084564,5.3220215,56.8843079 C202.5601044,263.2545776,150.0167236,202.3982086,208.9193573,198.1509399z" fill="#2E1042"/></g><g id="change2_24"><path d="M249.4763794,189.4842682c3.437973-9.9469604-4.7100677-8.6327515-4.7100677-8.6327515 c2.1536865-9.420166-6.4395142-8.9075165-6.4395142-8.9075165c-4.1666107-9.4614105-14.8703156,1.8428345-17.3911133,5.657135 c-2.5225525,3.816925-12.0163269,20.5498047-12.0163269,20.5498047l-62.4759369,26.9934235 c0,0-87.5039063-86.7762451-64.7183075-29.4380341c9.5125504,23.9379272,48.6070557,82.6808777,67.0195923,78.2597961 c24.6459503-5.9178772,65.3095551-33.0912476,83.3406219-50.9050598 c3.8259277-3.7798309,14.5395508-16.403595,17.3611145-20.982193 C257.8096008,188.5079041,249.4763794,189.4842682,249.4763794,189.4842682z" fill="#FF8762"/></g><g opacity=".5"><g id="change4_20"><path d="M217.657547,202.2963562c1.8105011,0.5016327,3.8100586,0.6478729,5.5192261-0.1321564 c1.7093964-0.780014,2.9947357-2.6814728,2.6027679-4.5189819c2.5450439,1.0153656,5.7971649-0.8392334,6.2193756-3.5466766 c1.8873749,0.6161194,4.0506134-0.2774811,5.2911682-1.8278198c1.2400818-1.5505829,1.6648407-3.6263275,1.582428-5.6101837 c-0.2657013-6.3869781-5.1817474-11.559021-10.2099762-15.5061035c-0.2624664-0.2060242-0.5378571-0.3950806-0.8028717-0.5979919 c-3.0628357,2.1736145-5.802948,5.3484039-6.9239197,7.0446472c-2.0972137,3.173172-9.0075073,15.2646332-11.2803955,19.2559052 C211.6574554,199.4568787,214.4919891,201.4195099,217.657547,202.2963562z" fill="#FC3D5F"/></g></g><g opacity=".5"><g id="change4_2"><path d="M220.6894379,233.1309204c-2.1119843,0.5893402-4.470047,0.8171844-6.4202118-0.1850281 c-1.7523346-0.9003906-2.9187927-2.686203-3.494278-4.570343c-0.5757294-1.88414-0.631134-3.882782-0.6581421-5.8526917 c-0.1050262-7.6913605,0.1784515-18.8729401,0.8141937-27.9018097c-1.2036133,2.1058655-2.0115662,3.5299377-2.0115662,3.5299377 l-10.2783051,4.4408569c-0.353653,1.9752045-0.5136261,3.9981995-0.5826569,6.0023956 c-0.2703094,7.844635,0.7077789,15.686142,2.1595459,23.4000092c0.8769684,4.6607208,1.9536285,9.3323059,3.5868378,13.7730408 c6.0857239-4.2080383,11.8381195-8.5123444,16.9224396-12.6484833 C220.7145996,233.1223755,220.7021332,233.1274567,220.6894379,233.1309204z" fill="#FC3D5F"/></g></g><g id="change5_22"><path d="M91.1288757,141.5015564c-13.7354126,7.0041504-25.356041,31.7269745-14.6573029,59.9055481 c4.7862473,12.6061249,18.7497406,28.6284943,32.8799744,57.2507019 c7.1964035,14.5770264,17.9345322,18.9263306,51.0862427,18.3880005 c29.8107147-0.4840698,53.8035889-22.0105591,53.8035889-22.0105591s-11.0167084-12.6708679-9.4374695-32.1553497 c0.5506592-6.7940063,4.115448-24.7289581,4.115448-24.7289581s-9.6659393,0.9598846-12.8842468,1.3144379 c-16.0323792,1.7662811-28.6573181,14.6292877-42.6484222,18.9336853 c-3.8183136,1.1747284-13.8933716-19.5524597-24.1275482-36.6358795 C119.3358765,165.198761,112.8119965,130.4446106,91.1288757,141.5015564z" fill="#FFCFB9"/></g><g id="change3_26"><path d="M188.3398438,201.5408325c-0.1845703,0-0.3447266-0.1352539-0.3710938-0.3222656 c-0.4794922-3.3876953-1.8691406-14.105957-2.3730469-18.1708984c-0.0253906-0.2055664,0.1201172-0.3930664,0.3261719-0.418457 c0.2158203-0.0239258,0.3925781,0.121582,0.4179688,0.3256836c0.5039063,4.0629883,1.8925781,14.7739258,2.3710938,18.1582031 c0.0292969,0.2050781-0.1132813,0.3950195-0.3183594,0.4238281 C188.375,201.539856,188.3564453,201.5408325,188.3398438,201.5408325z" fill="#2E1042"/></g><g id="change3_22"><path d="M211.2675781,337.0266724c-0.2021484,0-0.3691406-0.1606445-0.375-0.3637695 c-0.8398438-28.4067383-3.6630859-39.5957031-7.9375-56.5317383c-1.09375-4.3310547-2.3320313-9.2402344-3.6357422-14.8530273 c-0.046875-0.2016602,0.0791016-0.4033203,0.2802734-0.4501953c0.2060547-0.0498047,0.4042969,0.0800781,0.4501953,0.2802734 c1.3017578,5.6064453,2.5400391,10.5117188,3.6318359,14.8393555c4.2871094,16.9838867,7.1191406,28.2045898,7.9609375,56.6928711 c0.0058594,0.2070313-0.1572266,0.3798828-0.3642578,0.3862305 C211.2744141,337.0266724,211.2714844,337.0266724,211.2675781,337.0266724z" fill="#2E1042"/></g><g id="change2_12"><path d="M112.8119965,135.1463776c0,0,36.1925964,10.5693817,35.2969666,3.2734833 c0,0-21.7823105-13.7071533-35.2969666-3.6628571" fill="#FF8762"/></g><g id="change3_60"><path d="M142.6328125,144.8635864c-11.6845703,0-30.2871094-4.5268555-34.2939453-8.7675781 c-0.1425781-0.1503906-0.1357422-0.3876953,0.0146484-0.5297852c0.1503906-0.1411133,0.3896484-0.1352539,0.5302734,0.0151367 c5.1767578,5.4780273,35.1904297,11.4741211,41.7138672,7.1142578c1.1396484-0.7612305,1.3955078-1.7988281,0.78125-3.171875 c-0.0849609-0.1889648,0-0.4111328,0.1884766-0.4956055c0.1875-0.0854492,0.4111328-0.0004883,0.4951172,0.1889648 c0.7675781,1.7133789,0.4052734,3.1318359-1.0478516,4.1020508 C149.3955078,144.4011841,146.3671875,144.8635864,142.6328125,144.8635864z" fill="#2E1042"/></g><g id="change3_40"><path d="M208.8066406,259.6755981c-0.1191406,0-0.2373047-0.0571289-0.3095703-0.1630859 c-0.0751953-0.1098633-7.5458984-11.1166992-10.7666016-23.2666016 c-5.6162109-21.1845703,4.2597656-37.4770508,4.3603516-37.6391602c0.1083984-0.1767578,0.3398438-0.2299805,0.515625-0.121582 c0.1757813,0.1088867,0.2304688,0.340332,0.1220703,0.5161133c-0.0996094,0.159668-9.8037109,16.1914063-4.2734375,37.0522461 c3.1875,12.0268555,10.5869141,22.9267578,10.6611328,23.0351563c0.1171875,0.1708984,0.0732422,0.4042969-0.0976563,0.5214844 C208.9541016,259.6546021,208.8798828,259.6755981,208.8066406,259.6755981z" fill="#2E1042"/></g><g id="change3_12"><path d="M216.9746094,328.2351685h-5.7070313c-0.2070313,0-0.375-0.1679688-0.375-0.375 s0.1679688-0.375,0.375-0.375h5.7070313c0.2070313,0,0.375,0.1679688,0.375,0.375 S217.1816406,328.2351685,216.9746094,328.2351685z" fill="#2E1042"/></g><g id="change3_52"><ellipse cx="359.901" cy="167.23" fill="#2E1042" rx="1.959" ry="1.247" transform="rotate(-77.627 359.9 167.23)"/></g><g id="change3_27"><ellipse cx="346.157" cy="165.879" fill="#2E1042" rx="1.959" ry="1.247" transform="rotate(-77.627 346.157 165.879)"/></g><g id="change3_20"><path d="M354.6357422,185.3098755c-1.3017578,0-2.203125-0.2817383-2.2265625-0.2895508 c-0.1972656-0.0639648-0.3037109-0.2753906-0.2402344-0.472168c0.0644531-0.1977539,0.2763672-0.3046875,0.4726563-0.2407227 c0.2304688,0.0737305,5.7011719,1.7612305,8.8896484-4.1538086c0.0986328-0.184082,0.3261719-0.25,0.5078125-0.1523438 c0.1826172,0.0981445,0.2509766,0.3256836,0.1523438,0.5078125 C360.0185547,184.5422974,356.7832031,185.3098755,354.6357422,185.3098755z" fill="#2E1042"/></g><g id="change3_28"><path d="M348.1416016,178.0652466c-0.0546875,0-0.109375-0.0117188-0.1621094-0.0366211l-2.8046875-1.3442383 c-0.1152344-0.0556641-0.1943359-0.1660156-0.2099609-0.2929688s0.0351563-0.253418,0.1337891-0.3344727 c4.3066406-3.5532227,6.4921875-12.1147461,6.5146484-12.2011719c0.0498047-0.2006836,0.2558594-0.324707,0.4541016-0.2724609 c0.2011719,0.050293,0.3232422,0.2539063,0.2724609,0.4550781c-0.0869141,0.3491211-2.1269531,8.3359375-6.328125,12.215332 l2.2919922,1.0981445c0.1865234,0.0898438,0.265625,0.3134766,0.1757813,0.5004883 C348.4150391,177.9866333,348.28125,178.0652466,348.1416016,178.0652466z" fill="#2E1042"/></g><g id="change3_21"><path d="M366.0478516,160.5872192c-0.1269531,0-0.25-0.0644531-0.3212891-0.1811523 c-2.3125-3.8276367-5.8457031-1.8173828-5.9951172-1.7299805c-0.1796875,0.1035156-0.4082031,0.0449219-0.5136719-0.1333008 c-0.1044922-0.1782227-0.0458984-0.4077148,0.1328125-0.5126953c0.0429688-0.0253906,4.3164063-2.4819336,7.0185547,1.9882813 c0.1064453,0.1772461,0.0498047,0.4077148-0.1269531,0.5146484 C366.1816406,160.5696411,366.1142578,160.5872192,366.0478516,160.5872192z" fill="#2E1042"/></g><g id="change3_50"><path d="M350.1201172,158.1282349c-0.125,0-0.2480469-0.0629883-0.3193359-0.1772461 c-0.0566406-0.090332-1.4257813-2.2167969-4.3085938-0.9047852c-0.1904297,0.0859375-0.4111328,0.0019531-0.4970703-0.1860352 c-0.0849609-0.1884766-0.0019531-0.4111328,0.1865234-0.496582c3.5068359-1.5947266,5.2412109,1.1669922,5.2587891,1.1948242 c0.1074219,0.1762695,0.0517578,0.4057617-0.1240234,0.5141602 C350.2558594,158.1106567,350.1875,158.1282349,350.1201172,158.1282349z" fill="#2E1042"/></g><g><g id="change5_10"><path d="M231.0081635,168.7876282c6.929245,6.521637,11.9703064,14.1544342,6.2951965,15.7606354 c-2.2886047,0.6477356-5.4387665-1.4686432-8.5531311-4.1665955c0,0,10.2302246,7.6624603,5.8357697,10.8177643 c-2.3677063,1.700058-5.6920013-0.7915649-10.6882477-4.658432c0,0,5.2739105,3.5619202,3.9854431,6.6111603 c-0.9879608,2.3381348-4.7752533,3.0150146-9.963623-1.9527283c0,0,3.2078552,2.6125946,3.6275787,5.305191 c0.2661285,1.7072449,0,4.5515594-4.1936951,3.7363586c-4.8438721-0.9415894-15.6247711-9.8331146-6.6801605-14.4246216 c0,0-2.973526-6.9082947,4.1666107-7.8140717c0,0-1.427948-5.4103699,5.6469574-6.0444183 C220.4868622,171.9578705,224.3918915,162.5605469,231.0081635,168.7876282z" fill="#FFCFB9"/></g><g id="change3_54"><path d="M231.4882813,182.930481c-0.0888672,0-0.1767578-0.0307617-0.2480469-0.0942383 c-5.0234375-4.4389648-11.3027344-9.9624023-11.3027344-9.9624023l0.4960938-0.5634766 c0,0,6.2792969,5.5244141,11.3027344,9.9643555c0.1552734,0.1367188,0.1699219,0.3740234,0.0332031,0.5292969 C231.6953125,182.8875122,231.5917969,182.930481,231.4882813,182.930481z" fill="#2E1042"/></g><g id="change3_37"><path d="M226.2412109,188.8831177c-0.0849609,0-0.1708984-0.0288086-0.2412109-0.0878906l-11.8388672-9.9379883 c-0.1582031-0.1328125-0.1787109-0.3696289-0.0458984-0.5283203c0.1337891-0.1586914,0.3710938-0.1787109,0.5283203-0.0458984 l11.8388672,9.9379883c0.1582031,0.1328125,0.1787109,0.3696289,0.0458984,0.5283203 C226.4541016,188.8377075,226.3476563,188.8831177,226.2412109,188.8831177z" fill="#2E1042"/></g><g id="change3_23"><path d="M219.8349609,193.5271606c-0.0820313,0-0.1650391-0.0268555-0.234375-0.0820313l-9.1621094-7.3359375 c-0.1621094-0.1298828-0.1875-0.3657227-0.0585938-0.5273438c0.1308594-0.1611328,0.3662109-0.1870117,0.5273438-0.0585938 l9.1621094,7.3359375c0.1621094,0.1298828,0.1875,0.3657227,0.0585938,0.5273438 C220.0537109,193.4788208,219.9443359,193.5271606,219.8349609,193.5271606z" fill="#2E1042"/></g><g id="change3_42"><path d="M236.4179688,182.7214966c-0.0400391,0-0.0810547-0.0009766-0.1220703-0.0029297 c-1.5986328-0.0761719-3.4814453-1.6938477-4.0253906-2.7299805c-0.4150391-0.7910156-0.1806641-1.7548828,0.6269531-2.578125 c0.7148438-0.7294922,1.8632813-1.3105469,2.5839844-0.9492188l0,0c1.3886719,0.6948242,2.6054688,2.0922852,2.9589844,3.3974609 c0.1914063,0.7109375,0.1181641,1.3554688-0.2148438,1.8637695 C237.7978516,182.3777466,237.1748047,182.7214966,236.4179688,182.7214966z M234.9853516,177.102356 c-0.3427734,0-1.0009766,0.2714844-1.5517578,0.8330078c-0.2734375,0.2783203-0.8681641,1.0014648-0.4990234,1.7045898 c0.4589844,0.8745117,2.1240234,2.2685547,3.3974609,2.3295898c0.5517578,0.034668,0.9599609-0.1894531,1.2666016-0.6572266 c0.2148438-0.3291016,0.2539063-0.7519531,0.1171875-1.2578125c-0.2958984-1.0966797-1.3769531-2.3256836-2.5703125-2.9223633 l0,0C235.1064453,177.1121216,235.0517578,177.102356,234.9853516,177.102356z" fill="#2E1042"/></g><g id="change3_44"><path d="M231.8134766,190.2039185c-1.5830078,0-3.5292969-1.4140625-4.1464844-2.3813477 c-0.4794922-0.7524414-0.328125-1.7324219,0.40625-2.6210938c0.6513672-0.7875977,1.7431641-1.4609375,2.4951172-1.1655273l0,0 c1.4433594,0.574707,2.7734375,1.8637695,3.2363281,3.1347656c0.2519531,0.6918945,0.2324219,1.3408203-0.0556641,1.8754883 c-0.3916016,0.7265625-1.0273438,1.1259766-1.8398438,1.15625 C231.8779297,190.2034302,231.8457031,190.2039185,231.8134766,190.2039185z M230.1767578,184.7146606 c-0.328125,0-0.9990234,0.328125-1.5253906,0.9648438c-0.2480469,0.2998047-0.7792969,1.0703125-0.3515625,1.7397461 c0.53125,0.8325195,2.3300781,2.059082,3.5820313,2.0336914c0.546875-0.0205078,0.9414063-0.2695313,1.2070313-0.762207 c0.1865234-0.3461914,0.1894531-0.7714844,0.0107422-1.2636719c-0.3886719-1.0678711-1.5693359-2.2006836-2.8085938-2.6938477 l0,0C230.2597656,184.72052,230.2216797,184.7146606,230.1767578,184.7146606z" fill="#2E1042"/></g><g id="change3_55"><path d="M224.2363281,193.2737427c-1.5830078,0-3.5283203-1.4135742-4.1464844-2.3808594 c-0.4804688-0.7529297-0.328125-1.7333984,0.4072266-2.6225586c0.6503906-0.7866211,1.7460938-1.4624023,2.4931641-1.1640625 c1.4433594,0.574707,2.7734375,1.8632813,3.2363281,3.1337891c0.2519531,0.6923828,0.2324219,1.3413086-0.0556641,1.8759766 c-0.390625,0.7260742-1.0263672,1.1259766-1.8388672,1.15625 C224.3007813,193.2732544,224.2685547,193.2737427,224.2363281,193.2737427z M222.5986328,187.7844849 c-0.3271484,0-0.9970703,0.328125-1.5234375,0.9638672c-0.2480469,0.300293-0.7802734,1.0712891-0.3525391,1.7412109 c0.53125,0.8325195,2.3164063,2.0615234,3.5820313,2.0332031c0.5458984-0.0205078,0.9404297-0.2695313,1.2060547-0.762207 c0.1865234-0.3461914,0.1904297-0.7714844,0.0107422-1.2636719c-0.3886719-1.0678711-1.5693359-2.2006836-2.8085938-2.6943359 l0,0C222.6816406,187.7903442,222.6435547,187.7844849,222.5986328,187.7844849z" fill="#2E1042"/></g><g id="change3_49"><path d="M217.8232422,199.0154419c-1.5839844,0-3.5292969-1.4140625-4.1464844-2.3808594 c-0.4804688-0.7524414-0.3291016-1.7324219,0.40625-2.621582c0.6503906-0.7871094,1.7412109-1.4614258,2.4941406-1.1655273 v0.0004883c1.4433594,0.574707,2.7744141,1.8637695,3.2363281,3.1347656c0.2519531,0.6918945,0.2324219,1.340332-0.0556641,1.875 c-0.390625,0.7265625-1.0273438,1.1259766-1.8398438,1.15625 C217.8867188,199.0149536,217.8544922,199.0154419,217.8232422,199.0154419z M216.1855469,193.5261841 c-0.328125,0-0.9990234,0.328125-1.5244141,0.9648438c-0.2480469,0.2998047-0.7792969,1.0708008-0.3515625,1.7402344 c0.5302734,0.8320313,2.2978516,2.0810547,3.5810547,2.0332031c0.546875-0.0205078,0.9414063-0.2695313,1.2070313-0.762207 c0.1865234-0.3461914,0.1894531-0.7709961,0.0107422-1.2631836c-0.3876953-1.0673828-1.5693359-2.2006836-2.8085938-2.6943359 l0,0C216.2685547,193.5320435,216.2304688,193.5261841,216.1855469,193.5261841z" fill="#2E1042"/></g></g><g id="change3_36"><path d="M351.1011963,212.6911469c-9.531189,2.7494812-28.1347961,21.7530365-28.3202515,40.2608032 C321.6875,362.0799255,293.4993591,374.5283813,305.6350098,389.54422 c23.9777832,29.668457,149.8321838,30.0303955,140.2154236-6.8839417 c-18.8428345-72.328949,15.1732178-118.1414795-12.8223877-156.4421387 c-6.5854187-9.0094604-23.7897034-16.5713348-35.3317566-17.4105225 C388.6964111,208.1532593,367.9044189,207.8438873,351.1011963,212.6911469z" fill="#2E1042"/></g><g opacity=".3"><g id="change4_19"><path d="M359.6153564,222.3231812c10.1624451-1.2756348,19.7228088-6.3861694,26.6838989-13.8792267 c-9.3937073,0.0196228-21.5411682,0.7801361-32.4346619,3.5073242c0.0064697-0.1242065,0.0101624-0.1939087,0.0101624-0.1939087 s-1.2507019,0.3582611-3.3624573,1.1290436c-0.2211609,0.0759583-0.4459839,0.1595154-0.6754456,0.2511597 c-3.6106262,1.3524017-9.2801514,3.755127-15.4660645,7.4165344c2.6860962,0.9561615,5.6704407,1.3146515,8.5340576,1.5788574 C348.4631042,222.6457825,354.0767517,223.0183716,359.6153564,222.3231812z" fill="#FC3D5F"/></g></g><g id="change3_14"><path d="M373.8779297,459.4890747c-0.1435547,0-0.28125-0.0834961-0.3427734-0.2236328l-11.359375-25.7299805 c-0.0839844-0.1894531,0.0019531-0.4106445,0.1914063-0.4946289c0.1865234-0.081543,0.4111328,0.0024414,0.4941406,0.1918945 l11.359375,25.7299805c0.0839844,0.1894531-0.0019531,0.4106445-0.1914063,0.4946289 C373.9804688,459.4788208,373.9287109,459.4890747,373.8779297,459.4890747z" fill="#2E1042"/></g><g id="change3_30"><path d="M427.0507813,428.3694458c-20.2792969,0-24.9755859-17.8994141-25.0224609-18.0854492 c-0.0498047-0.2011719,0.0722656-0.4042969,0.2734375-0.4545898c0.2050781-0.0512695,0.4042969,0.0727539,0.4550781,0.2729492 c0.046875,0.1855469,4.8857422,18.53125,26.0458984,17.4726563c0.2119141-0.0112305,0.3828125,0.1494141,0.3935547,0.355957 c0.0097656,0.206543-0.1494141,0.3828125-0.3564453,0.3930664 C428.2304688,428.3543091,427.6337891,428.3694458,427.0507813,428.3694458z" fill="#2E1042"/></g><g id="change3_13"><path d="M312.5820313,418.1253052c-0.1484375,0-0.2890625-0.0888672-0.3476563-0.2348633 c-0.0771484-0.1918945,0.015625-0.4106445,0.2070313-0.487793c8.8046875-3.550293,9.9550781-16.3041992,9.9658203-16.4326172 c0.0175781-0.2060547,0.1757813-0.3623047,0.4052734-0.3427734c0.2060547,0.0166016,0.359375,0.1977539,0.3427734,0.4042969 c-0.0449219,0.5429688-1.203125,13.3452148-10.4326172,17.0664063 C312.6767578,418.1165161,312.6289063,418.1253052,312.5820313,418.1253052z" fill="#2E1042"/></g><g><g id="change5_34"><path d="M453.7679138,362.3959045c0,0-2.7132874-10.4950256-10.5090637-13.5439148 s-15.4140625-4.2976074-19.8192444-3.2133179c-2.1184692,0.5214233-2.9961243,2.6375427-0.7143555,5.2035828 c2.2817383,2.56604,9.7324219,5.2912903,9.7324219,5.2912903s-8.4157104-0.9010925-14.7051697,2.4744873 c-4.3297424,2.3237915-0.2779541,6.8638,4.2579041,7.7079163c4.5358887,0.8441467,12.9808044,0.0782776,12.9808044,0.0782776 s-17.7799683,3.0821838-13.4619751,9.5441284c3.2937622,4.9291382,15.8771973,0.6055603,15.8771973,0.6055603 s-12.5661316,5.8609924-9.2669678,10.3208923c3.8201599,5.1642151,13.6172791-1.5529175,13.6172791-1.5529175 s0.4879761,13.6260376,11.3653259,6.1339111C459.1045532,387.3251953,471.0813599,370.7478027,453.7679138,362.3959045z" fill="#FFCFB9"/></g><g id="change3_46"><path d="M446.6425781,360.0007935c-0.0800781,0-0.1601563-0.0253906-0.2285156-0.0776367 c-4.0888672-3.1352539-8.8369141-3.4716797-13.4287109-3.796875c-1.8691406-0.1323242-3.8017578-0.269043-5.6464844-0.5952148 c-0.2041016-0.0361328-0.3398438-0.2304688-0.3037109-0.4345703c0.0361328-0.203125,0.2275391-0.3369141,0.4345703-0.3037109 c1.8066406,0.3193359,3.71875,0.4545898,5.5683594,0.5854492c4.7021484,0.3330078,9.5644531,0.6772461,13.8330078,3.9501953 c0.1640625,0.1259766,0.1953125,0.3613281,0.0693359,0.5253906 C446.8662109,359.9505005,446.7548828,360.0007935,446.6425781,360.0007935z" fill="#2E1042"/></g><g id="change3_18"><path d="M428.3789063,367.6194458c-0.1757813,0-0.3320313-0.1235352-0.3681641-0.3017578 c-0.0400391-0.203125,0.0917969-0.4003906,0.2949219-0.440918c0.0996094-0.0205078,10.1230469-1.9916992,17.5097656-1.2329102 c0.2060547,0.0209961,0.3564453,0.2050781,0.3349609,0.4111328s-0.2128906,0.3603516-0.4111328,0.3349609 c-7.2705078-0.7441406-17.1884766,1.2021484-17.2871094,1.222168 C428.4277344,367.6170044,428.4023438,367.6194458,428.3789063,367.6194458z" fill="#2E1042"/></g><g id="change3_29"><path d="M433.3232422,378.5344849c-0.1425781,0-0.2783203-0.081543-0.3408203-0.2197266 c-0.0859375-0.1884766-0.0029297-0.4106445,0.1855469-0.496582c4.6640625-2.125,12.1767578-4.6738281,12.2519531-4.6992188 c0.1962891-0.0668945,0.4091797,0.0385742,0.4755859,0.2348633s-0.0390625,0.4086914-0.2353516,0.4750977 c-0.0751953,0.0253906-7.5517578,2.5629883-12.1816406,4.671875 C433.4287109,378.5237427,433.375,378.5344849,433.3232422,378.5344849z" fill="#2E1042"/></g><g id="change3_31"><path d="M441.2128906,386.7063599c-0.1191406,0-0.2373047-0.0571289-0.3095703-0.1640625 c-0.1171875-0.1708984-0.0722656-0.4042969,0.0986328-0.5209961l8.7109375-5.9331055 c0.1699219-0.1152344,0.4033203-0.0732422,0.5205078,0.0991211c0.1171875,0.1708984,0.0722656,0.4042969-0.0986328,0.5209961 l-8.7109375,5.9331055C441.359375,386.6853638,441.2861328,386.7063599,441.2128906,386.7063599z" fill="#2E1042"/></g><g id="change3_47"><path d="M423.4619141,363.9744263c-0.7285156,0-1.4765625-0.1503906-2.1611328-0.4521484 c-0.9804688-0.4321289-1.6455078-1.1132813-1.8261719-1.8681641c-0.1855469-0.7783203,0.0078125-1.5307617,0.5595703-2.175293 c1.1123047-1.300293,3.3789063-1.8618164,4.5869141-1.7641602l0,0c1.1826172,0.09375,2.1728516,1.0576172,2.4628906,2.3984375 c0.2382813,1.0947266-0.0166016,2.5458984-1.4414063,3.3364258 C425.0126953,363.798645,424.2490234,363.9744263,423.4619141,363.9744263z M424.3310547,358.4539185 c-1.0693359,0-2.8564453,0.4941406-3.7275391,1.512207c-0.3945313,0.4614258-0.5283203,0.9707031-0.3984375,1.5141602 c0.125,0.5249023,0.6347656,1.019043,1.3984375,1.355957c1.2158203,0.5366211,2.6601563,0.5200195,3.6757813-0.0429688 c1.0654297-0.5908203,1.2529297-1.6899414,1.0722656-2.5209961c-0.1835938-0.8447266-0.8076172-1.7319336-1.7890625-1.8095703 l0,0C424.4902344,358.4568481,424.4121094,358.4539185,424.3310547,358.4539185z" fill="#2E1042"/></g><g id="change3_4"><path d="M430.0976563,351.8240356c-1.2099609,0-2.8007813-0.6582031-3.7685547-1.4331055 c-0.7871094-0.6308594-1.1835938-1.3183594-1.1435547-1.9873047c0.0380859-0.6586914,0.4472656-1.2304688,1.1826172-1.6533203 c1.2949219-0.7441406,3.3652344-0.8779297,4.5205078-0.2905273c1.2431641,0.6313477,1.5810547,1.9482422,1.4833984,2.9697266 c-0.1113281,1.1572266-0.7353516,2.0634766-1.5908203,2.3081055 C430.5742188,351.7966919,430.34375,351.8240356,430.0976563,351.8240356z M429.0820313,346.8445435 c-0.8164063,0-1.7089844,0.1933594-2.3398438,0.5561523c-0.3535156,0.2026367-0.7792969,0.5483398-0.8085938,1.0463867 c-0.0234375,0.4106445,0.2832031,0.8925781,0.8642578,1.3583984c1.1035156,0.8833008,2.9023438,1.4594727,3.7763672,1.2114258 c0.5488281-0.1572266,0.9707031-0.8237305,1.0507813-1.6586914c0.0742188-0.7758789-0.1689453-1.769043-1.0761719-2.2294922l0,0 C430.1708984,346.9368286,429.6445313,346.8445435,429.0820313,346.8445435z" fill="#2E1042"/></g><g id="change3_57"><path d="M428.1572266,376.7546997c-0.6005859,0-1.2128906-0.1108398-1.8173828-0.3330078 c-1.3203125-0.4863281-2.375-1.4360352-2.6855469-2.4194336c-0.2060547-0.6518555-0.0878906-1.3271484,0.3417969-1.9526367 c0.9433594-1.3745117,3.1962891-2.3012695,4.8291016-2.4033203l0,0c1.3359375-0.0854492,2.5791016,0.953125,3.0820313,2.515625 c0.5058594,1.5751953,0.0498047,3.0834961-1.1630859,3.8427734 C429.9482422,376.5027466,429.0654297,376.7542114,428.1572266,376.7546997z M428.8720703,370.3953247 c-1.4277344,0.0888672-3.4794922,0.9453125-4.2578125,2.0786133c-0.3017578,0.440918-0.3828125,0.8666992-0.2451172,1.3027344 c0.2363281,0.7460938,1.1533203,1.5444336,2.2304688,1.940918c0.7480469,0.2763672,2.234375,0.5976563,3.7460938-0.3486328 c1.1074219-0.6933594,1.1640625-1.9926758,0.8466797-2.9780273 C430.8681641,371.380188,430.0078125,370.321106,428.8720703,370.3953247L428.8720703,370.3953247z M428.8486328,370.020813 h0.0097656H428.8486328z" fill="#2E1042"/></g><g id="change3_38"><path d="M433.9316406,386.7918091c-0.2617188,0-0.5117188-0.0200195-0.7441406-0.0571289 c-1.0996094-0.175293-1.9462891-0.7451172-2.265625-1.5239258c-0.3798828-0.9277344-0.1210938-1.9726563,0.7294922-2.9418945 c1.1669922-1.3300781,3.2089844-2.2817383,4.2900391-1.9975586l0,0c0.9287109,0.2451172,1.9785156,1.703125,2.3408203,2.8579102 c0.2255859,0.7211914,0.1796875,1.2958984-0.1328125,1.6625977 C436.8886719,386.2737427,435.2558594,386.7918091,433.9316406,386.7918091z M435.5097656,380.9690552 c-0.8183594,0-2.3759766,0.7485352-3.2939453,1.7944336c-0.4628906,0.5268555-0.9414063,1.3295898-0.6005859,2.1630859 c0.2197266,0.534668,0.8515625,0.9335938,1.6904297,1.0673828c1.1582031,0.1835938,2.9628906-0.1489258,4.2734375-1.6884766 c0.1308594-0.1533203,0.1259766-0.5092773-0.0126953-0.9521484c-0.3173828-1.0136719-1.234375-2.203125-1.8164063-2.3564453 c0,0,0,0,0-0.0004883C435.6796875,380.9783325,435.5996094,380.9690552,435.5097656,380.9690552z" fill="#2E1042"/></g></g><g id="change3_34"><path d="M389.8935852,209.4196625c13.8225098-2.5487061,34.9714661,2.6814117,56.480011,19.1062927 c12.2886658,9.384201,36.2464905,38.4629059,47.2116699,48.0969696 c17.3376465,15.2329102-5.0723877,60.8157349-13.2244568,91.3634033 c-7.4333191,27.8544617-27.9297485,28.769989-27.9297485,28.769989s3.7048645-5.5132446,4.1768188-14.276825 c0.5080261-9.4331665-2.7865295-32.1330872-18.3660278-36.775238c0,0-0.4441833-3.4554443,3.4725952-14.7872314 s13.7368164-25.0847778,9.9330139-26.9017944C383.9804993,271.6918335,361.3976135,214.6739502,389.8935852,209.4196625z" fill="#2E1042"/></g><g opacity=".3"><g id="change4_6"><path d="M493.5853271,276.6229553c-8.552063-7.5139465-25.0068054-26.8544617-37.6653442-39.4557343 c9.4507446,13.7894287,18.2941284,27.9950714,26.4855957,42.5678558 c3.3463135,5.9530945,6.6143494,12.0411377,8.3382874,18.6490479c1.5752869,6.0387268,1.8149109,12.341217,1.8065796,18.5821838 c-0.0062256,4.8283081-0.1680603,9.6516724-0.4171143,14.4718018 C499.470459,308.664032,504.709198,286.3964233,493.5853271,276.6229553z" fill="#FC3D5F"/></g></g><g id="change4_4"><path d="M317.6816406,320.180481c-0.0126953,0-0.0263672-0.0004883-0.0400391-0.0019531 c-0.2060547-0.0219727-0.3544922-0.2070313-0.3330078-0.4125977c0.0390625-0.3671875,3.9199219-36.9550781,4.5048828-57.9477539 c0.0058594-0.2036133,0.1728516-0.3647461,0.375-0.3647461c0.0029297,0,0.0068359,0,0.0107422,0 c0.2070313,0.0058594,0.3701172,0.1782227,0.3642578,0.3852539c-0.5869141,21.0224609-4.4697266,57.6391602-4.5087891,58.0063477 C318.0341797,320.0374146,317.8710938,320.180481,317.6816406,320.180481z" fill="#FC3D5F"/></g><g id="change4_8"><path d="M442.0849609,299.5012817c-0.0546875,0-0.1103516-0.0117188-0.1621094-0.0371094 c-0.1933594-0.0927734-19.4804688-9.3999023-33.0908203-19.9482422c-0.1640625-0.1269531-0.1933594-0.3623047-0.0673828-0.5258789 c0.1279297-0.1650391,0.3623047-0.1948242,0.5263672-0.0668945c13.546875,10.4990234,32.7636719,19.7724609,32.9560547,19.8652344 c0.1865234,0.0893555,0.265625,0.3134766,0.1757813,0.5C442.3583984,299.4231567,442.2246094,299.5012817,442.0849609,299.5012817 z" fill="#FC3D5F"/></g><g id="change5_33"><path d="M353.0286255,212.0189972c0,0-0.2655029,7.246109,20.993103,4.014679 c9.7824707-1.4869843,15.8403931-7.5920105,15.8403931-7.5920105S369.7763062,204.6591949,353.0286255,212.0189972z" fill="#FFCFB9"/></g><g id="change5_1"><path d="M465.9013672,373.114563c-0.1083984,0-0.2158203-0.0463867-0.2890625-0.1367188 c-0.1318359-0.159668-0.109375-0.3959961,0.0507813-0.527832c11.5839844-9.5341797,18.1289063-41.3520508,22.9091797-64.5839844 c0.6455078-3.1391602,1.2558594-6.1054688,1.8388672-8.8183594c3.1005859-14.4335938-10.7119141-28.0395508-21.8105469-38.972168 c-3.1435547-3.0966797-6.1132813-6.0219727-8.2675781-8.5834961 c-29.2675781-34.7998047-66.8417969-37.4868164-67.21875-37.5097656c-0.2060547-0.0126953-0.3632813-0.190918-0.3505859-0.3974609 c0.0117188-0.206543,0.1845703-0.3652344,0.3974609-0.3515625c0.3789063,0.0234375,38.2734375,2.7329102,67.7460938,37.7763672 c2.1318359,2.534668,5.0888672,5.4472656,8.2197266,8.53125c11.2294922,11.0615234,25.2050781,24.828125,22.0166016,39.6640625 c-0.5820313,2.7114258-1.1914063,5.6757813-1.8369141,8.8120117 c-4.8017578,23.3417969-11.3789063,55.3095703-23.1669922,65.012207 C466.0703125,373.086731,465.9853516,373.114563,465.9013672,373.114563z" fill="#FFCFB9"/></g><g id="change5_11"><path d="M364.1152344,223.6409302c-5.6464844,0-10.0410156-1.1923828-13.1142578-3.5664063 c-3.4619141-2.6743164-3.8574219-5.8491211-3.8730469-5.9829102c-0.0224609-0.2050781,0.125-0.3901367,0.3300781-0.4140625 c0.2099609-0.0200195,0.3916016,0.1245117,0.4150391,0.3291016c0.0039063,0.0297852,0.390625,3.0175781,3.6083984,5.4912109 c4.0791016,3.1347656,10.953125,4.1118164,19.8837891,2.8295898c8.6376953-1.2416992,20.0117188-5.503418,26.0283203-13.7412109 c0.1230469-0.1679688,0.3574219-0.203125,0.5234375-0.081543c0.1679688,0.1220703,0.2041016,0.3564453,0.0820313,0.5239258 c-6.1542969,8.4262695-17.7382813,12.777832-26.5263672,14.0410156 C368.8232422,223.4505005,366.3691406,223.6409302,364.1152344,223.6409302z" fill="#FFCFB9"/></g><g id="change5_15"><path d="M460.9072266,394.6570435c-0.0556641,0-0.1113281-0.012207-0.1650391-0.0380859 c-0.1855469-0.0913086-0.2626953-0.315918-0.171875-0.5019531c5.5673828-11.3759766,6.6367188-22.128418,3.1787109-31.9584961 c-6.0087891-17.0825195-23.8564453-25.6318359-24.0361328-25.7163086c-0.1875-0.0878906-0.2685547-0.3115234-0.1806641-0.4985352 c0.0888672-0.1879883,0.3115234-0.2670898,0.4990234-0.1801758c0.1826172,0.0854492,18.3056641,8.7597656,24.4238281,26.1401367 c3.5292969,10.0283203,2.4492188,20.9775391-3.2109375,32.543457 C461.1787109,394.579895,461.0458984,394.6570435,460.9072266,394.6570435z" fill="#FFCFB9"/></g><g id="change5_18"><path d="M452.5835266,360.086853c-2.6595459-9.0610962-12.7112732-21.2255859-12.7112732-21.2255859 l-0.0258789,12.5878906C439.8463745,351.4491577,453.6670837,363.7785645,452.5835266,360.086853z" fill="#FFCFB9"/></g><g id="change3_19"><path d="M446.2451172,350.8445435c-0.0947266,0-0.1884766-0.0351563-0.2617188-0.1064453 c-2.0966797-2.0419922-6.7265625-3.6210938-6.7734375-3.6367188c-0.1962891-0.0664063-0.3017578-0.2792969-0.2353516-0.4755859 c0.0654297-0.1962891,0.2783203-0.300293,0.4755859-0.2353516c0.1962891,0.0664063,4.8378906,1.6489258,7.0566406,3.8105469 c0.1484375,0.1445313,0.1513672,0.3818359,0.0068359,0.5302734 C446.4404297,350.8064575,446.3427734,350.8445435,446.2451172,350.8445435z" fill="#2E1042"/></g><g id="change5_21"><path d="M275.8222656,332.3626099c-0.0341797,0-0.0693359-0.0048828-0.1035156-0.0146484 c-36.4033203-10.4931641-42.4287109-53.7094727-42.4853516-54.1450195 c-0.0263672-0.2055664,0.1181641-0.3935547,0.3232422-0.4204102c0.2148438-0.0263672,0.3945313,0.1186523,0.4208984,0.3237305 c0.0556641,0.4301758,6.0234375,43.1655273,41.9482422,53.5209961c0.1992188,0.0576172,0.3144531,0.2651367,0.2568359,0.4643555 C276.1347656,332.2556763,275.9853516,332.3626099,275.8222656,332.3626099z" fill="#FFCFB9"/></g><g id="change5_25"><path d="M275.9335938,332.3933716c-0.0693359,0-0.1386719-0.019043-0.2011719-0.0585938 c-0.1748047-0.1108398-0.2265625-0.3422852-0.1152344-0.5170898c0.0556641-0.0883789,5.7207031-8.8701172,15.3417969-10.4951172 c6.2109375-1.0512695,12.6796875,1.050293,19.2197266,6.2441406c0.1621094,0.128418,0.1894531,0.3642578,0.0605469,0.5268555 c-0.1289063,0.1630859-0.3642578,0.1899414-0.5273438,0.0600586c-6.3623047-5.0532227-12.6259766-7.1035156-18.6220703-6.0927734 c-9.2890625,1.5654297-14.7851563,10.0727539-14.8398438,10.1582031 C276.1787109,332.3318481,276.0576172,332.3933716,275.9335938,332.3933716z" fill="#FFCFB9"/></g><g id="change5_36"><path d="M286.7060547,273.1096802c-0.0644531,0-0.1064453-0.0024414-0.125-0.0039063 c-0.2070313-0.0166016-0.3603516-0.1967773-0.3447266-0.4033203c0.015625-0.2060547,0.1904297-0.355957,0.4003906-0.3447266l0,0 c0.0976563-0.0087891,8.8095703,0.2529297,22.9863281-23.5830078 c9.9580078-16.7436523,21.3222656-25.9301758,39.2255859-31.7089844c0.1962891-0.0625,0.4091797,0.0449219,0.4716797,0.2416992 c0.0644531,0.1972656-0.0439453,0.4086914-0.2412109,0.472168c-17.7119141,5.7167969-28.9560547,14.8076172-38.8115234,31.3789063 C296.5195313,272.2727661,287.8779297,273.1096802,286.7060547,273.1096802z" fill="#FFCFB9"/></g><g id="change4_21"><path d="M300.5810547,277.520813c-12.5019531,0-16.1220703-6.6333008-16.2773438-6.9301758 c-0.0957031-0.1831055-0.0253906-0.4091797,0.1572266-0.5053711c0.1816406-0.0957031,0.4101563-0.0258789,0.5068359,0.1572266 c0.0371094,0.0722656,3.9775391,7.2231445,17.6191406,6.4726563c0.2021484-0.0161133,0.3828125,0.1479492,0.3945313,0.3540039 c0.0117188,0.2070313-0.1464844,0.3837891-0.3535156,0.3950195 C301.9208984,277.5027466,301.2373047,277.520813,300.5810547,277.520813z" fill="#FC3D5F"/></g><g id="change5_5"><path d="M229.6279297,284.2478638c-0.0859375,0-0.171875-0.0292969-0.2431641-0.0893555 c-0.1572266-0.1337891-0.1767578-0.3706055-0.0429688-0.5283203 c17.0126953-20.0205078,21.6308594-79.5566406,21.6757813-80.1557617c0.015625-0.206543,0.1787109-0.3598633,0.4023438-0.3461914 c0.2060547,0.015625,0.3613281,0.1953125,0.3457031,0.4018555c-0.0449219,0.6015625-4.6826172,60.3798828-21.8515625,80.5854492 C229.8398438,284.2029419,229.734375,284.2478638,229.6279297,284.2478638z" fill="#FFCFB9"/></g><g id="change5_4"><path d="M393.6318359,293.4465942c-51.7978516,0-72.6015625-9.121582-72.8457031-9.2324219 c-0.1884766-0.0854492-0.2714844-0.3076172-0.1865234-0.4960938c0.0859375-0.1889648,0.3056641-0.2729492,0.4970703-0.1865234 c0.2910156,0.1318359,30.0351563,13.1464844,107.2568359,7.9345703c0.2207031-0.0141602,0.3847656,0.1430664,0.3994141,0.3486328 c0.0136719,0.206543-0.1425781,0.3857422-0.3486328,0.3994141 C415.5273438,293.0838013,403.9609375,293.4465942,393.6318359,293.4465942z" fill="#FFCFB9"/></g><g id="change5_23"><path d="M388.0537109,314.4788208c-37.5654297,0-68.3857422-11.1796875-68.8320313-11.3452148 c-0.1943359-0.0717773-0.2939453-0.2875977-0.2216797-0.4819336c0.0712891-0.1928711,0.2871094-0.2939453,0.4814453-0.2211914 c0.6484375,0.2397461,65.3945313,23.7163086,121.5976563,2.2900391c0.1914063-0.0712891,0.4101563,0.0234375,0.484375,0.2167969 c0.0732422,0.1938477-0.0234375,0.4106445-0.2167969,0.484375 C423.6748047,312.1585083,405.1630859,314.4788208,388.0537109,314.4788208z" fill="#FFCFB9"/></g><g id="change4_12"><path d="M379.9785156,143.8626099c-0.09375,0-0.1875-0.0351563-0.2607422-0.1054688 c-0.1484375-0.144043-0.1523438-0.3803711-0.0097656-0.5292969c0.1259766-0.1308594,3.2070313-3.2329102,13.7861328-5.9453125 c0.2041016-0.0522461,0.4042969,0.0698242,0.4560547,0.2700195c0.0517578,0.2006836-0.0693359,0.4052734-0.2705078,0.456543 c-10.3251953,2.6474609-13.4023438,5.7094727-13.4316406,5.7402344 C380.1738281,143.8245239,380.0761719,143.8626099,379.9785156,143.8626099z" fill="#FC3D5F"/></g><g id="change2_15"><path d="M352.4804688,151.1741333c-0.5507813,0-1.0664063-0.0175781-1.5205078-0.0380859 c-3.7529297-0.1679688-6.7236328-0.7226563-9.3476563-1.7456055c-2.2763672-0.887207-5.4326172-2.6113281-7.5439453-5.7900391 c-0.5185547-0.78125-0.8632813-1.4990234-1.0527344-2.1948242c-0.2167969-0.7944336-0.2490234-1.6235352-0.2519531-2.4008789 c-0.0136719-3.8378906,0.7753906-6.7167969,2.4121094-8.8017578c0.1279297-0.1625977,0.3642578-0.1918945,0.5263672-0.0634766 c0.1630859,0.1279297,0.1914063,0.3637695,0.0634766,0.5263672c-1.5283203,1.9472656-2.2646484,4.6738281-2.2519531,8.3359375 c0.0029297,0.7260742,0.0322266,1.4960938,0.2255859,2.206543c0.1679688,0.6166992,0.4804688,1.2636719,0.9541016,1.9770508 c2.0029297,3.015625,5.015625,4.6586914,7.1904297,5.5058594c2.546875,0.9926758,5.4414063,1.53125,9.109375,1.6958008 c1.0166016,0.0458984,2.3515625,0.0776367,3.6601563-0.0805664c1.1005859-0.1337891,2.2089844-0.402832,3.28125-0.6625977 c3.0380859-0.737793,6.4736328-1.5727539,9.1269531-3.5556641c0.1669922-0.1230469,0.4003906-0.090332,0.5253906,0.0756836 c0.1240234,0.1660156,0.0898438,0.4008789-0.0761719,0.5249023c-2.7763672,2.0751953-6.2919922,2.9287109-9.3925781,3.6821289 c-1.0996094,0.2666016-2.2304688,0.5410156-3.375,0.6796875 C353.9726563,151.1443481,353.1972656,151.1741333,352.4804688,151.1741333z" fill="#FF8762"/></g><g id="change2_21"><path d="M401.6572266,159.2454224c-0.0605469,0-0.1210938-0.0146484-0.1777344-0.0449219 c-0.1826172-0.0981445-0.2509766-0.3256836-0.1523438-0.5083008c2.3378906-4.3349609,3.2822266-8.1157227,2.8867188-11.5576172 c-0.4189453-3.6396484-2.9580078-7.769043-7-8.6186523c-0.1181641-0.0249023-0.2167969-0.1049805-0.265625-0.2148438 c-0.0488281-0.1103516-0.0419922-0.2373047,0.0185547-0.3413086c2.0263672-3.4775391,0.7216797-8.5170898-2.7373047-10.5737381 c-1.9521484-1.159668-4.3242188-1.418457-6.5976563-1.5258789c-2.6113281-0.1220703-5.2607422-0.0756836-7.8701172,0.1391602 c-0.2226563,0.0239258-0.3876953-0.137207-0.4052734-0.3427734c-0.0166016-0.206543,0.1367188-0.3876953,0.3427734-0.4042969 c2.6416016-0.2182617,5.3212891-0.265625,7.9677734-0.1411133c2.3701172,0.1118164,4.8525391,0.3867188,6.9453125,1.6303711 c3.6513672,2.1699295,5.1142578,7.3701248,3.2382813,11.1577225c4.1083984,1.1347656,6.6748047,5.3881836,7.1074219,9.1494141 c0.4150391,3.6000977-0.5576172,7.5249023-2.9707031,12C401.9199219,159.1741333,401.7900391,159.2454224,401.6572266,159.2454224 z" fill="#FF8762"/></g><g><g id="change5_29"><path d="M396,448.0530396c-8.0878906,0-14.6669922-6.5795898-14.6669922-14.6669922 S387.9121094,418.7190552,396,418.7190552s14.6669922,6.5795898,14.6669922,14.6669922S404.0878906,448.0530396,396,448.0530396z M396,419.4690552c-7.6738281,0-13.9169922,6.2431641-13.9169922,13.9169922S388.3261719,447.3030396,396,447.3030396 s13.9169922-6.2431641,13.9169922-13.9169922S403.6738281,419.4690552,396,419.4690552z" fill="#FFCFB9"/></g><g id="change5_8"><path d="M397.3583984,438.1087036h-10.2353516c-0.2070313,0-0.375-0.1679688-0.375-0.375v-8.6953125 c0-0.2070313,0.1679688-0.375,0.375-0.375h10.2353516c0.2070313,0,0.375,0.1679688,0.375,0.375v8.6953125 C397.7333984,437.9407349,397.5654297,438.1087036,397.3583984,438.1087036z M387.4980469,437.3587036h9.4853516v-7.9453125 h-9.4853516V437.3587036z" fill="#FFCFB9"/></g><g id="change5_20"><path d="M404.4560547,438.1087036c-0.0546875,0-0.1083984-0.0117188-0.1591797-0.0356445l-4.7548828-2.234375 c-0.1318359-0.0615234-0.2158203-0.1938477-0.2158203-0.3393555v-4.2270508c0-0.1455078,0.0839844-0.277832,0.2158203-0.3393555 l4.7548828-2.2338867c0.1162109-0.0546875,0.2509766-0.046875,0.3603516,0.0229492 c0.1083984,0.0688477,0.1738281,0.1879883,0.1738281,0.3164063v8.6953125c0,0.128418-0.0654297,0.2475586-0.1738281,0.3164063 C404.5957031,438.0891724,404.5263672,438.1087036,404.4560547,438.1087036z M400.0761719,435.2610474l4.0048828,1.8823242 v-7.5146484l-4.0048828,1.8818359V435.2610474z" fill="#FFCFB9"/></g><g id="change5_27"><path d="M347.4824219,448.0530396c-8.0878906,0-14.6669922-6.5795898-14.6669922-14.6669922 s6.5791016-14.6669922,14.6669922-14.6669922s14.6669922,6.5795898,14.6669922,14.6669922 S355.5703125,448.0530396,347.4824219,448.0530396z M347.4824219,419.4690552 c-7.6738281,0-13.9169922,6.2431641-13.9169922,13.9169922s6.2431641,13.9169922,13.9169922,13.9169922 s13.9169922-6.2431641,13.9169922-13.9169922S355.15625,419.4690552,347.4824219,419.4690552z" fill="#FFCFB9"/></g><g id="change5_12"><path d="M357.8876953,437.2693481h-5.5712891c-0.1005859,0-0.1972656-0.0405273-0.2685547-0.112793 c-0.0703125-0.0722656-0.1083984-0.1699219-0.1064453-0.2709961l0.0546875-2.3623047 c-2.8837891-1.0634766-6.0595703-1.1567383-8.9990234-0.2641602l-0.0556641,2.6430664 c-0.0039063,0.2041016-0.1708984,0.3671875-0.375,0.3671875h-5.5703125c-0.1005859,0-0.1972656-0.0405273-0.2675781-0.112793 c-0.0712891-0.0717773-0.109375-0.1694336-0.1074219-0.2705078l0.0810547-3.7709961 c0.0371094-1.2822266,1.2421875-2.4208984,3.3916016-3.2089844c2.0400391-0.7480469,4.7226563-1.1113281,7.5615234-1.03125 c2.8369141,0.0830078,5.4970703,0.6049805,7.4892578,1.4707031c2.1005859,0.9116211,3.2363281,2.1191406,3.1992188,3.3984375 l-0.0810547,3.1601563C358.2578125,437.1072388,358.0908203,437.2693481,357.8876953,437.2693481z M352.7001953,436.5193481 h4.8222656l0.0712891-2.7958984c0.0273438-0.9399414-0.9736328-1.9199219-2.7480469-2.6899414 c-1.9072266-0.8286133-4.46875-1.3286133-7.2119141-1.4086914c-2.7548828-0.0844727-5.3300781,0.2700195-7.2822266,0.9853516 c-1.8154297,0.6655273-2.8720703,1.5854492-2.8994141,2.5239258l-0.0732422,3.3852539h4.8203125l0.0537109-2.5449219 c0.0039063-0.159668,0.1074219-0.2998047,0.2587891-0.3486328c3.2578125-1.0576172,6.8095703-0.9545898,10.0019531,0.2919922 c0.1464844,0.0571289,0.2421875,0.2001953,0.2382813,0.3579102L352.7001953,436.5193481z" fill="#FFCFB9"/></g><g id="change5_26"><path d="M298.9648438,448.0530396c-8.0878906,0-14.6669922-6.5795898-14.6669922-14.6669922 s6.5791016-14.6669922,14.6669922-14.6669922s14.6669922,6.5795898,14.6669922,14.6669922 S307.0527344,448.0530396,298.9648438,448.0530396z M298.9648438,419.4690552 c-7.6738281,0-13.9169922,6.2431641-13.9169922,13.9169922s6.2431641,13.9169922,13.9169922,13.9169922 s13.9169922-6.2431641,13.9169922-13.9169922S306.6386719,419.4690552,298.9648438,419.4690552z" fill="#FFCFB9"/></g><g id="change5_7"><path d="M298.9648438,439.0598755c-3.5761719,0-6.4853516-2.9091797-6.4853516-6.4853516 c0-0.2070313,0.1679688-0.375,0.375-0.375s0.375,0.1679688,0.375,0.375c0,3.1625977,2.5732422,5.7353516,5.7353516,5.7353516 s5.7353516-2.5727539,5.7353516-5.7353516c0-0.2070313,0.1679688-0.375,0.375-0.375s0.375,0.1679688,0.375,0.375 C305.4501953,436.1506958,302.5410156,439.0598755,298.9648438,439.0598755z" fill="#FFCFB9"/></g><g id="change5_14"><path d="M298.9648438,436.8640747c-2.1806641,0-3.9550781-1.7744141-3.9550781-3.9555664v-5.0600586 c0-2.1811523,1.7744141-3.9555664,3.9550781-3.9555664s3.9550781,1.7744141,3.9550781,3.9555664v5.0600586 C302.9199219,435.0896606,301.1455078,436.8640747,298.9648438,436.8640747z M298.9648438,424.6428833 c-1.7675781,0-3.2050781,1.4379883-3.2050781,3.2055664v5.0600586c0,1.7675781,1.4375,3.2055664,3.2050781,3.2055664 s3.2050781-1.4379883,3.2050781-3.2055664v-5.0600586C302.1699219,426.0808716,300.7324219,424.6428833,298.9648438,424.6428833z" fill="#FFCFB9"/></g><g id="change5_3"><path d="M298.9648438,442.8787231c-0.2070313,0-0.375-0.1679688-0.375-0.375v-3.8188477 c0-0.2070313,0.1679688-0.375,0.375-0.375s0.375,0.1679688,0.375,0.375v3.8188477 C299.3398438,442.7107544,299.171875,442.8787231,298.9648438,442.8787231z" fill="#FFCFB9"/></g></g><g id="change5_19" opacity=".5"><path d="M350.6865845,126.4159241c3.2753296-2.0588989,5.8804932-5.138382,7.4353943-8.6782455 c-7.0876465,0.4920197-18.0279846,2.6350555-22.8232422,10.8458328c0.6354675,0.2674103,1.3208618,0.4535675,1.9786987,0.5596619 C341.8796082,129.8854218,346.7400818,128.8970184,350.6865845,126.4159241z" fill="#FFCFB9"/></g><g id="change4_13"><path d="M347.4824219,144.8093872h-0.0009766c-2.625-0.0102539-5.1894531-1.2236328-6.8613281-3.2460938 c-1.6728516-2.0224609-2.3818359-4.7700195-1.8974609-7.3496094c0.0371094-0.203125,0.2285156-0.3378906,0.4375-0.2993164 c0.203125,0.0380859,0.3378906,0.234375,0.2988281,0.4379883c-0.4433594,2.362793,0.2070313,4.8798828,1.7392578,6.7333984 c1.53125,1.8525391,3.8808594,2.9643555,6.2851563,2.9736328c0.2080078,0.0009766,0.375,0.1694336,0.3740234,0.3764648 C347.8564453,144.642395,347.6884766,144.8093872,347.4824219,144.8093872z" fill="#FC3D5F"/></g><g id="change4_14"><path d="M360.8359375,144.9763794c-0.4101563,0-0.8203125-0.0087891-1.2314453-0.0263672 c-0.2070313-0.0087891-0.3681641-0.1835938-0.359375-0.3901367s0.1884766-0.3920898,0.390625-0.3588867 c3.5146484,0.1459961,6.9873047-0.355957,10.3164063-1.4975586c0.2001953-0.0708008,0.4101563,0.0371094,0.4765625,0.2329102 c0.0673828,0.1958008-0.0371094,0.4091797-0.2324219,0.4760742 C367.1669922,144.4514771,364.0244141,144.9763794,360.8359375,144.9763794z" fill="#FC3D5F"/></g><g><g id="change1_10"><path d="M200.1005859,369.8289185c-8.0878906,0-14.6669922-6.5795898-14.6669922-14.6669922 s6.5791016-14.6669922,14.6669922-14.6669922s14.6669922,6.5795898,14.6669922,14.6669922 S208.1884766,369.8289185,200.1005859,369.8289185z M200.1005859,341.2449341 c-7.6738281,0-13.9169922,6.2431641-13.9169922,13.9169922s6.2431641,13.9169922,13.9169922,13.9169922 s13.9169922-6.2431641,13.9169922-13.9169922S207.7744141,341.2449341,200.1005859,341.2449341z" fill="#FFAC67"/></g><g id="change1_1"><path d="M201.4589844,359.8845825h-10.2353516c-0.2070313,0-0.375-0.1679688-0.375-0.375V350.81427 c0-0.2070313,0.1679688-0.375,0.375-0.375h10.2353516c0.2070313,0,0.375,0.1679688,0.375,0.375v8.6953125 C201.8339844,359.7166138,201.6660156,359.8845825,201.4589844,359.8845825z M191.5986328,359.1345825h9.4853516V351.18927 h-9.4853516V359.1345825z" fill="#FFAC67"/></g><g id="change1_7"><path d="M208.5566406,359.8845825c-0.0546875,0-0.1083984-0.0117188-0.1591797-0.0356445l-4.7548828-2.234375 c-0.1318359-0.0615234-0.2158203-0.1938477-0.2158203-0.3393555v-4.2270508c0-0.1455078,0.0839844-0.277832,0.2158203-0.3393555 l4.7548828-2.2338867c0.1162109-0.0546875,0.2509766-0.0463867,0.3603516,0.0229492 c0.1083984,0.0688477,0.1738281,0.1879883,0.1738281,0.3164063v8.6953125c0,0.128418-0.0654297,0.2475586-0.1738281,0.3164063 C208.6962891,359.8650513,208.6269531,359.8845825,208.5566406,359.8845825z M204.1767578,357.0369263l4.0048828,1.8823242 v-7.5146484l-4.0048828,1.8818359V357.0369263z" fill="#FFAC67"/></g><g id="change1_5"><path d="M151.5830078,369.8289185c-8.0878906,0-14.6669922-6.5795898-14.6669922-14.6669922 s6.5791016-14.6669922,14.6669922-14.6669922S166.25,347.0745239,166.25,355.1619263 S159.6708984,369.8289185,151.5830078,369.8289185z M151.5830078,341.2449341 c-7.6738281,0-13.9169922,6.2431641-13.9169922,13.9169922s6.2431641,13.9169922,13.9169922,13.9169922 S165.5,362.8357544,165.5,355.1619263S159.2568359,341.2449341,151.5830078,341.2449341z" fill="#FFAC67"/></g><g id="change1_4"><path d="M161.9882813,359.0447388h-5.5712891c-0.1005859,0-0.1972656-0.0405273-0.2685547-0.112793 c-0.0703125-0.0722656-0.1083984-0.1699219-0.1064453-0.2709961l0.0546875-2.3618164 c-2.8828125-1.0629883-6.0566406-1.1567383-8.9990234-0.2641602l-0.0546875,2.6425781 c-0.0039063,0.2041016-0.1708984,0.3671875-0.375,0.3671875h-5.5712891c-0.1005859,0-0.1972656-0.0405273-0.2675781-0.112793 c-0.0712891-0.0717773-0.109375-0.1694336-0.1074219-0.2705078l0.0810547-3.7705078 c0.0371094-1.2822266,1.2421875-2.4208984,3.3916016-3.2089844c2.0400391-0.7480469,4.7246094-1.112793,7.5615234-1.03125 c2.8369141,0.0830078,5.4970703,0.6049805,7.4892578,1.4707031c2.1005859,0.9116211,3.2363281,2.1191406,3.1992188,3.3984375 l-0.0810547,3.159668C162.3583984,358.8826294,162.1914063,359.0447388,161.9882813,359.0447388z M156.8007813,358.2947388 h4.8222656l0.0712891-2.7954102c0.0273438-0.9399414-0.9736328-1.9199219-2.7480469-2.6899414 c-1.9072266-0.8286133-4.46875-1.3286133-7.2119141-1.4086914c-2.7539063-0.0844727-5.3300781,0.2700195-7.2822266,0.9853516 c-1.8154297,0.6655273-2.8720703,1.5854492-2.8994141,2.5239258l-0.0732422,3.3847656h4.8212891l0.0527344-2.5444336 c0.0029297-0.159668,0.1074219-0.2998047,0.2587891-0.3486328c3.2607422-1.0581055,6.8115234-0.9541016,10.0019531,0.2919922 c0.1464844,0.0571289,0.2421875,0.2001953,0.2382813,0.3579102L156.8007813,358.2947388z" fill="#FFAC67"/></g><g id="change1_6"><path d="M103.0654297,369.8289185c-8.0878906,0-14.6669922-6.5795898-14.6669922-14.6669922 s6.5791016-14.6669922,14.6669922-14.6669922s14.6669922,6.5795898,14.6669922,14.6669922 S111.1533203,369.8289185,103.0654297,369.8289185z M103.0654297,341.2449341 c-7.6738281,0-13.9169922,6.2431641-13.9169922,13.9169922s6.2431641,13.9169922,13.9169922,13.9169922 s13.9169922-6.2431641,13.9169922-13.9169922S110.7392578,341.2449341,103.0654297,341.2449341z" fill="#FFAC67"/></g><g id="change1_2"><path d="M103.0654297,360.8357544c-3.5761719,0-6.4853516-2.9091797-6.4853516-6.4853516 c0-0.2070313,0.1679688-0.375,0.375-0.375s0.375,0.1679688,0.375,0.375c0,3.1625977,2.5732422,5.7353516,5.7353516,5.7353516 s5.7353516-2.5727539,5.7353516-5.7353516c0-0.2070313,0.1679688-0.375,0.375-0.375s0.375,0.1679688,0.375,0.375 C109.5507813,357.9265747,106.6416016,360.8357544,103.0654297,360.8357544z" fill="#FFAC67"/></g><g id="change1_8"><path d="M103.0654297,358.6399536c-2.1806641,0-3.9550781-1.7744141-3.9550781-3.9555664v-5.0600586 c0-2.1811523,1.7744141-3.9555664,3.9550781-3.9555664s3.9550781,1.7744141,3.9550781,3.9555664v5.0600586 C107.0205078,356.8655396,105.2460938,358.6399536,103.0654297,358.6399536z M103.0654297,346.4187622 c-1.7675781,0-3.2050781,1.4379883-3.2050781,3.2055664v5.0600586c0,1.7675781,1.4375,3.2055664,3.2050781,3.2055664 s3.2050781-1.4379883,3.2050781-3.2055664v-5.0600586C106.2705078,347.8567505,104.8330078,346.4187622,103.0654297,346.4187622z" fill="#FFAC67"/></g><g id="change1_9"><path d="M103.0654297,364.6546021c-0.2070313,0-0.375-0.1679688-0.375-0.375v-3.8188477 c0-0.2070313,0.1679688-0.375,0.375-0.375s0.375,0.1679688,0.375,0.375v3.8188477 C103.4404297,364.4866333,103.2724609,364.6546021,103.0654297,364.6546021z" fill="#FFAC67"/></g></g><g opacity=".4"><g id="change4_3"><path d="M159.3289642,67.8479843c0.094635,0.9944763,0.4418335,1.9752121,0.9459991,2.8435287 c0.7853241,1.3527451,1.9185333,2.4681778,3.0962982,3.4975052c1.0874939,0.9501572,2.2613373,1.8370514,3.5923767,2.3804626 C166.6986389,73.621376,164.411438,70.2343292,159.3289642,67.8479843z" fill="#FC3D5F"/></g></g><g opacity=".4"><g id="change4_23"><path d="M126.0958252,90.2755737c0.564415,1.7138977,1.5683517,3.2313461,2.7029419,4.6475677 c0.5505676-3.7286987-0.7927094-7.9975662-2.0741272-11.021843 C125.4984055,85.7106476,125.4032974,88.1735153,126.0958252,90.2755737z" fill="#FC3D5F"/></g></g><g id="change4_24"><path d="M154.2324219,80.636528c-0.0058594,0-0.0117188,0-0.0166016-0.0004883 c-0.2070313-0.0092773-0.3671875-0.1845703-0.3583984-0.3916016c0.0419922-0.9194336-0.3994141-1.8046875-0.8837891-2.6245117 c-1.1474609-1.9448242-2.5703125-3.7080078-4.2285156-5.2397461c-0.1523438-0.1401367-0.1621094-0.3774414-0.0214844-0.5297852 c0.1416016-0.1523438,0.3789063-0.1616211,0.5302734-0.0209961c1.7119141,1.581543,3.1816406,3.4013672,4.3662109,5.409668 c0.5166016,0.8754883,1.0380859,1.9213867,0.9873047,3.0395508 C154.5976563,80.4797897,154.4316406,80.636528,154.2324219,80.636528z" fill="#FC3D5F"/></g><g id="change4_25"><path d="M138.9472656,78.7898483c-0.1035156,0-0.2070313-0.0429688-0.28125-0.1264648 c-1.2304688-1.3920898-2.3056641-2.9282227-3.1943359-4.5664063c-0.0986328-0.1821289-0.03125-0.409668,0.1513672-0.5083008 c0.1816406-0.0976563,0.4101563-0.0322266,0.5087891,0.1508789c0.8613281,1.5883789,1.9033203,3.0776367,3.0966797,4.4267578 c0.1367188,0.1552734,0.1220703,0.3920898-0.0332031,0.5292969 C139.1240234,78.7585983,139.0361328,78.7898483,138.9472656,78.7898483z" fill="#FC3D5F"/></g><g id="change5_24"><path d="M76.4328766,200.0166626c0.0279312,0.0013885,0.0563202-0.0013733,0.0837936,0.0025482 c0.3229523,0.0454712,0.6043472,0.2109833,0.8654327,0.4123993c-0.194603-0.4319153-0.3790436-0.8680878-0.5754929-1.2990723 C76.8193054,199.3243713,76.6521759,199.6734009,76.4328766,200.0166626z" fill="#FFCFB9"/></g><g id="change5_28"><path d="M75.4337845,200.8834839c0.0457077,0.3395691,0.6082687-0.2550812,0.9990921-0.8668213 C75.9234009,199.9926605,75.3661423,200.3809357,75.4337845,200.8834839z" fill="#FFCFB9"/></g><g id="change2_6" opacity=".5"><path d="M135.3016205,55.0777283c3.9324188-0.4597244,7.8657684-1.4143753,11.5050049-2.967144 c-6.1711273-4.2568665-19.7437973-3.1115379-30.3893738,2.6933632 C122.7105103,55.4004478,129.0351563,55.8104248,135.3016205,55.0777283z" fill="#FF8762"/></g><g id="change4_22"><path d="M452.4345703,305.446106c-0.0234375,0-0.0478516-0.0024414-0.0732422-0.0073242 c-0.203125-0.0400391-0.3349609-0.2373047-0.2949219-0.4404297l4.1982422-21.1982422 c0.0410156-0.2026367,0.2246094-0.3393555,0.4414063-0.2949219c0.203125,0.0400391,0.3349609,0.2373047,0.2949219,0.4404297 l-4.1982422,21.1982422C452.7666016,305.3225708,452.6103516,305.446106,452.4345703,305.446106z" fill="#FC3D5F"/></g><g id="change3_53"><path d="M139.7001953,225.6795044c-0.171875,0-0.3261719-0.1181641-0.3652344-0.2919922 c-0.0458984-0.2021484,0.0800781-0.402832,0.2822266-0.4487305c6.7509766-1.5322266,15.09375-7.331543,15.1777344-7.3896484 c0.1699219-0.1181641,0.4033203-0.0771484,0.5224609,0.0922852c0.1181641,0.1694336,0.0771484,0.4033203-0.0927734,0.5219727 c-0.3457031,0.2421875-8.5488281,5.9418945-15.4414063,7.5068359 C139.7548828,225.6765747,139.7275391,225.6795044,139.7001953,225.6795044z" fill="#2E1042"/></g><g><g id="change4_26"><path d="M72.9873047,305.4124146c-0.2875977-6.1311035-14.7380371,12.0322266-15.934082,13.6865234 c-7.1428223,9.8795166-13.0900879,20.826416-17.0175781,32.3994141 c-1.1555176,3.4052734-3.2902832,12.6328125-4.7375488,22.8220215c5.779541,6.4423828,14.1657715,10.4980469,23.501709,10.4980469 h0.175293c1.4240723-3.0507813,2.5112305-5.5583496,3.0732422-6.8936768 C71.6079102,355.2109985,74.1345215,329.8513794,72.9873047,305.4124146z" fill="#FC3D5F"/></g><g id="change4_27"><path d="M37.4228516,310.7095337c-0.0317383-5.1673584-6.5791016,2.7387695-10.1899414,7.5112305v35.0305176 c0,7.7001953,2.7600098,14.753418,7.3405762,20.2324219C37.9846191,351.7976685,37.4584961,316.4664917,37.4228516,310.7095337z" fill="#FC3D5F"/></g><g id="change2_25"><path d="M70.4345703,311.3948364c-0.1865234-0.0810547-0.4101563,0.0053711-0.4931641,0.1958008 c-0.1923828,0.4477539-16.9523926,39.4422607-25.4589844,69.7913818c0.2270508,0.1157227,0.451416,0.2357178,0.6813965,0.3460693 c8.4760742-30.3094482,25.2731934-69.3925781,25.467041-69.8405762 C70.7128906,311.6975708,70.625,311.4768677,70.4345703,311.3948364z" fill="#FF8762"/></g><g id="change2_26"><path d="M31.9453125,318.7410278c-0.1962891-0.0610352-0.4082031,0.0478516-0.4697266,0.2456055 c-0.0463867,0.1479492-2.1518555,6.9752197-4.2426758,17.8374023v4.1467285 c2.2919922-13.121582,4.9060059-21.5947266,4.9575195-21.7595215 C32.2529297,319.0134888,32.1425781,318.8030396,31.9453125,318.7410278z" fill="#FF8762"/></g></g><g id="change5_32"><path d="M11.5444307,32.6482887c3.5958061-7.1916122,13.0584536-3.785059,19.1145477,1.1355171 s5.2990818-4.7313232,13.4369602-8.3271294s11.7336845,3.4065533,15.6052475,9.4626503s5.9695892,4.5420685,13.7289658,3.4065514 s9.6519012,7.1916122,9.6519012,7.1916122H0C1.1355177,32.4590378,7.9486246,39.839901,11.5444307,32.6482887z" fill="#FFCFB9"/></g><g id="change5_35"><path d="M375.9118347,52.1073532h-83.0820618c0,0,1.8925171-8.3271294,9.6519165-7.1916122 c7.7593689,1.1355171,9.8573914,2.6495399,13.7289429-3.4065552c3.871582-6.0560951,7.4673767-13.0584526,15.6052551-9.4626465 s7.3808594,13.2477074,13.4369507,8.3271294s15.5187378-8.3271294,19.114563-1.1355171 C367.9631958,46.4297638,374.7763062,39.0488968,375.9118347,52.1073532z" fill="#FFCFB9"/></g><g id="change2_8"><path d="M471.8320313,195.0960083h-53.8378906c-0.2070313,0-0.375-0.1679688-0.375-0.375v-83.037117 c0-0.2070313,0.1679688-0.375,0.375-0.375h53.8378906c0.2070313,0,0.375,0.1679688,0.375,0.375s-0.1679688,0.375-0.375,0.375 h-53.4628906v82.287117h53.4628906c0.2070313,0,0.375,0.1679688,0.375,0.375S472.0390625,195.0960083,471.8320313,195.0960083z" fill="#FF8762"/></g><g id="change2_4"><path d="M471.8325195 122.1174393L428.2663879 122.1174393 428.2663879 184.2875824 471.8325195 184.2875824" fill="#FF8762"/></g><g id="change2_7"><path d="M328.4492188,195.0960083h-64.3017578c-0.2070313,0-0.375-0.1679688-0.375-0.375v-83.037117 c0-0.2070313,0.1679688-0.375,0.375-0.375h64.3017578c0.2070313,0,0.375,0.1679688,0.375,0.375v83.037117 C328.8242188,194.9280396,328.65625,195.0960083,328.4492188,195.0960083z M264.5224609,194.3460083h63.5517578v-82.287117 h-63.5517578V194.3460083z" fill="#FF8762"/></g><g id="change2_22"><path d="M317.9862976 122.1174393L274.420166 122.1174393 274.420166 184.2875824 317.9862976 184.2875824" fill="#FF8762"/></g><g id="change2_3"><path d="M309.5244141,355.9973755h-86.4179688c-0.2070313,0-0.375-0.1679688-0.375-0.375 s0.1679688-0.375,0.375-0.375h86.4179688c0.2070313,0,0.375,0.1679688,0.375,0.375 S309.7314453,355.9973755,309.5244141,355.9973755z" fill="#FF8762"/></g><g id="change2_14"><path d="M304.4287109,371.4465942h-81.3222656c-0.2070313,0-0.375-0.1679688-0.375-0.375 s0.1679688-0.375,0.375-0.375h81.3222656c0.2070313,0,0.375,0.1679688,0.375,0.375 S304.6357422,371.4465942,304.4287109,371.4465942z" fill="#FF8762"/></g><g><g><g id="change2_9"><path d="M221.4325867,404.447876c0.3541107-0.0609436,0.6542053,0.0145569,0.8885193,0.165863 c6.9867096-2.2698669,15.0022736-0.3182068,20.743576,4.6653442c7.4197693,6.4407654,8.6097717,20.270813,3.7682953,28.6280518 c-5.1863556,8.9525452-16.7559967,14.52005-26.9904327,13.2737122 c-9.5430756-1.1622925-17.1906891-9.2683716-18.2474823-18.7216187 C200.2503967,420.4306641,209.0219879,406.5848999,221.4325867,404.447876z" fill="#FF8762"/></g><g id="change2_16"><path d="M293.3255615,385.1300354c-18.6750488-15.8641663-47.0048218,11.9547424-29.0656128,31.1726685 C286.1093445,439.7095947,316.31427,404.6592102,293.3255615,385.1300354z" fill="#FF8762"/></g><g id="change2_1"><path d="M259.7594604,367.8064575c-8.8504791-23.7047729-36.0276031-11.6070557-40.11586,7.8783264 C211.0798187,416.5014648,272.0361023,400.6880188,259.7594604,367.8064575z" fill="#FF8762"/></g><g opacity=".3"><g id="change4_28"><path d="M243.064621,409.2790833c-0.9526825-0.8269958-1.9725494-1.5617676-3.0353546-2.2164612 c2.6549225,3.4755859,5.3615723,7.1766968,5.8999023,11.508606c0.4099731,3.2996521-0.4963226,6.6196594-1.6383057,9.7423706 c-0.8949738,2.4474182-1.9573212,4.8682556-3.5556793,6.9261169c-2.4550171,3.1601257-6.020401,5.2681885-9.6757965,6.8961182 c-5.7819366,2.574707-12.1894531,4.1429443-18.4543152,3.2417297c-2.1976318-0.31604-4.3677826-0.9808655-6.3800507-1.9490051 c3.3391571,4.1528625,8.165863,7.0882568,13.6174469,7.7522888c10.2344513,1.2463074,21.8040924-4.321167,26.990448-13.2737427 C251.6743927,429.5498962,250.4843903,415.7198486,243.064621,409.2790833z" fill="#FC3D5F"/></g></g><g opacity=".3"><g id="change4_17"><path d="M300.5882568,395.6047363c-0.6225891,4.7176208-2.6604614,9.2566833-5.9361267,12.7147217 c-1.670166,1.7633057-3.6475525,3.2672424-5.8925171,4.1943054c-3.5967712,1.4851379-7.6226807,1.4118347-11.5100708,1.2410278 c-3.7463684-0.1643677-7.6379395-0.4394226-10.9055176-2.2791138c-2.9612427-1.6673889-5.1630554-4.5473938-6.2443237-7.769165 c-0.6786804-2.0220642-0.9302979-4.1682129-0.8204041-6.3010864 c-1.7068481,6.0789185-0.611969,12.9059753,4.9806824,18.8972778 C282.5455322,435.8917542,306.675354,414.5387268,300.5882568,395.6047363z" fill="#FC3D5F"/></g></g><g opacity=".3"><g id="change4_1"><path d="M259.7594604,367.8064575c-1.5674438-4.1984863-3.7172852-7.2538147-6.2046204-9.3639526 c2.3349762,3.677124,2.5002747,8.4490051,2.5406494,12.8828125c0.0332642,3.6512451,0.0036926,7.533783-1.9552307,10.6150818 c-1.4039917,2.208374-3.6505585,3.7406006-5.9529877,4.9837036c-4.5189972,2.4397583-9.5751495,4.0175781-14.7107239,4.0149231 c-5.1353455-0.002655-10.3466339-1.6709595-14.1894836-5.0773926 c-0.1184235-0.1049194-0.2331543-0.2157288-0.3490295-0.3251343 C221.6772156,413.4444275,270.9068909,397.6638489,259.7594604,367.8064575z" fill="#FC3D5F"/></g></g><g id="change3_48"><path d="M249.3549805,458.642395c-0.1279297-0.0161133-0.2385254-0.0285645-0.3713379-0.0458984 c-0.1396484-0.0183105-0.2858887-0.0343018-0.4291992-0.0512695 c-4.4858398-16.4179688-16.4929199-30.9575195-32.095459-37.7099609 c-0.1894531-0.0825195-0.2773438-0.3032227-0.1943359-0.4931641c0.0820313-0.1899414,0.3037109-0.2763672,0.4931641-0.1953125 C232.6574707,427.0276489,244.8710938,441.8897095,249.3549805,458.642395z M285.2753906,395.2146606 c-0.1445313-0.1479492-0.3818359-0.1499023-0.5302734-0.0048828c-4.1796875,4.1010742-8.5009766,8.3422852-11.8730469,13.2817383 c-4.5478516,6.6606445-7.6210938,14.9853516-9.1318359,24.7431641 c-1.3464355,8.6967773-1.3442383,17.5390625-1.2036133,25.8793945h0.7502441 c-0.1408691-8.3114014-0.1437988-17.1213379,1.1936035-25.7646484 c1.4951172-9.6464844,4.5263672-17.8671875,9.0107422-24.4350586c3.3300781-4.878418,7.6259766-9.0932617,11.7792969-13.1694336 C285.4179688,395.5999146,285.4208984,395.3626099,285.2753906,395.2146606z M235.8300781,368.6135864 c-0.1132813-0.1748047-0.3457031-0.2226563-0.5185547-0.1118164c-0.1738281,0.1118164-0.2246094,0.3442383-0.1123047,0.5180664 c8.59375,13.3291016,14.4951172,29.8920898,17.5400391,49.2290039 c2.105957,13.3806152,2.7346191,26.9996338,2.9431152,40.8652344h0.75 c-0.2087402-13.8983154-0.8388672-27.5529785-2.9528809-40.9814453 C250.4189453,398.6912231,244.4804688,382.0305786,235.8300781,368.6135864z" fill="#2E1042"/></g></g></g><g id="change5_13"><path d="M27.2324219,147.0105591c-0.1914063,0-0.3544922-0.1450195-0.3730469-0.3383789 c-0.0205078-0.2060547,0.1308594-0.3896484,0.3369141-0.409668c7.7773438-0.7607422,15.3701172-2.5039063,22.5664063-5.1821289 c17.1357422-6.3769531,29.6884766-17.7334061,34.4394531-31.1567459c0.8466797-2.3935547,3.2324219-10.5625-1.6201172-15.2011719 c-1.9208984-1.8359375-4.6220703-2.6630859-6.7617188-3.1787109c-5.8027344-1.3994141-12.6914063-0.6430664-14.9951172,4.2021484 c-0.7626953,1.6030273-0.8183594,3.5751953-0.1533203,5.4116211s1.9716797,3.3164063,3.5839844,4.0600586 c1.6123047,0.7431641,3.5849609,0.7744141,5.4140625,0.0878906c1.828125-0.6870117,3.2910156-2.0107422,4.0146484-3.6313477 c0.0849609-0.1899414,0.3085938-0.2749023,0.4960938-0.1894531c0.1884766,0.0844727,0.2734375,0.3061523,0.1894531,0.4951172 c-0.8046875,1.8027344-2.421875,3.2705078-4.4365234,4.027832c-2.0126953,0.7578125-4.1972656,0.71875-5.9921875-0.109375 c-1.7929688-0.8266602-3.2421875-2.4614258-3.9746094-4.4853516c-0.7333984-2.0234375-0.6669922-4.206543,0.1806641-5.9892578 c2.4863281-5.2250977,9.7529297-6.0786133,15.8486328-4.609375c2.2304688,0.5380859,5.0546875,1.4067383,7.1035156,3.3662109 c5.1787109,4.9492188,2.6943359,13.4926758,1.8095703,15.9931641 c-4.8251953,13.6337891-17.5400391,25.1552811-34.8847656,31.6098709 c-7.2568359,2.7006836-14.9130859,4.4584961-22.7558594,5.2250977 C27.2568359,147.0100708,27.2441406,147.0105591,27.2324219,147.0105591z" fill="#FFCFB9"/></g><g id="change5_17"><path d="M203.8183594,81.514946c-7.421875,0-14.4697266-2.1640625-19.8310547-6.2460938 c-0.1640625-0.1254883-0.1962891-0.3608398-0.0712891-0.5253906c0.1259766-0.1660156,0.3603516-0.1972656,0.5263672-0.0712891 c7.2177734,5.4960938,17.5898438,7.4282227,27.7363281,5.1655273c8.4873047-1.8901367,17.0380859-6.5615234,25.4160156-13.8837891 c8.5712891-7.4916992,14.4707031-15.559082,17.5351563-23.9785156c0.9414063-2.5859375,3.5947266-11.394043-1.7792969-16.1445313 c-3.2265625-2.8491211-8.6757813-3.1538086-14.5810547-0.8115234c-1.8779297,0.7446289-8.0087891,3.5708008-8.0527344,8.6821289 c-0.0136719,1.6328125,0.7460938,3.2900391,2.0859375,4.5463867c1.4599609,1.3686523,3.4267578,2.1064453,5.2705078,1.9726563 c3.5673828-0.2597656,6.8154297-3.4301758,7.3945313-7.2182617c0.03125-0.2045898,0.2158203-0.3442383,0.4277344-0.3139648 c0.2050781,0.03125,0.3457031,0.2226563,0.3144531,0.4272461c-0.6308594,4.1196289-4.1806641,7.5688477-8.0820313,7.8530273 c-2.0527344,0.1484375-4.2285156-0.6635742-5.8378906-2.1733398c-1.4921875-1.3994141-2.3388672-3.2583008-2.3232422-5.1005859 c0.0322266-3.7646484,3.2197266-7.2685547,8.5253906-9.3725586c6.1728516-2.4472656,11.9121094-2.0957031,15.3544922,0.9472656 c5.7294922,5.0639648,2.9707031,14.2636719,1.9882813,16.9628906 c-3.1083984,8.5395508-9.0791016,16.7104492-17.7460938,24.2861328 c-8.4736328,7.4057617-17.1367188,12.1333008-25.7470703,14.0517578 C209.4951172,81.2043991,206.6298828,81.514946,203.8183594,81.514946z" fill="#FFCFB9"/></g><g id="change2_20"><path d="M212.6743317,96.2516479c-0.7027283-7.7130966-13.7646027,8.9580688-13.4047089,8.6355057 C194.4985962,109.1632462,214.2145081,113.1673965,212.6743317,96.2516479z" fill="#FF8762"/></g><g id="change2_5"><path d="M49.939209,110.8328705c-0.7863197-4.5734863-16.7970238,11.2698746-12.1702919,15.2776718 C40.7466545,131.0847778,50.0773849,111.6362305,49.939209,110.8328705z" fill="#FF8762"/></g><g id="change3_43"><path d="M138.0878906,99.0471725c-0.0849609,0-0.1708984-0.0288086-0.2412109-0.0878906 c-0.1582031-0.1333008-0.1787109-0.3701172-0.0458984-0.5283203c0.0302734-0.0356445,3.0292969-3.5234375,6.4394531-0.6782227 c0.1591797,0.1328125,0.1806641,0.3691406,0.0478516,0.5283203c-0.1328125,0.1586914-0.3691406,0.1801758-0.5283203,0.0478516 c-2.8427734-2.3730469-5.2822266,0.4633789-5.3847656,0.5844727 C138.3007813,99.0017624,138.1943359,99.0471725,138.0878906,99.0471725z" fill="#2E1042"/></g><g id="change3_35"><path d="M152.2089844,97.3875046c-0.0771484,0-0.1542969-0.0234375-0.2207031-0.0722656 c-0.1679688-0.1220703-0.2041016-0.3564453-0.0820313-0.5239258c0.0322266-0.0449219,0.8154297-1.0976563,2.1699219-1.2880859 c0.9423828-0.1303711,1.9033203,0.1806641,2.8632813,0.9272461c0.1630859,0.1269531,0.1923828,0.362793,0.0654297,0.5263672 c-0.1279297,0.1640625-0.3632813,0.1914063-0.5263672,0.0654297c-0.7939453-0.6181641-1.5703125-0.8759766-2.2978516-0.7763672 c-1.0439453,0.1464844-1.6630859,0.9794922-1.6689453,0.987793 C152.4384766,97.3342819,152.3242188,97.3875046,152.2089844,97.3875046z" fill="#2E1042"/></g></g></svg>